<?xml version="1.0" encoding="UTF-8" standalone="no"?>
<svg xmlns:dc="http://purl.org/dc/elements/1.1/"
  xmlns:cc="http://creativecommons.org/ns#"
  xmlns:rdf="http://www.w3.org/1999/02/22-rdf-syntax-ns#"
  xmlns:svg="http://www.w3.org/2000/svg"
  xmlns="http://www.w3.org/2000/svg"
  xmlns:sodipodi="http://sodipodi.sourceforge.net/DTD/sodipodi-0.dtd"
  xmlns:inkscape="http://www.inkscape.org/namespaces/inkscape" version="1.1" id="svg320" xml:space="preserve" width="216mm" height="216mm" viewBox="0 0 816.37797 816.37797" sodipodi:docname="berlin.svg" inkscape:version="1.0.2 (e86c870879, 2021-01-15, custom)" inkscape:export-xdpi="300" inkscape:export-ydpi="300">
  <metadata id="metadata326">
    <rdf:RDF>
      <cc:Work rdf:about="">
        <dc:format>image/svg+xml</dc:format>
        <dc:type rdf:resource="http://purl.org/dc/dcmitype/StillImage" />
        <dc:title />
      </cc:Work>
    </rdf:RDF>
  </metadata>
  <defs id="defs324">
    <clipPath clipPathUnits="userSpaceOnUse" id="clipPath338">
      <path d="M 0,0 H 612 V 612 H 0 Z" id="path336" />
    </clipPath>
    <clipPath clipPathUnits="userSpaceOnUse" id="clipPath348">
      <path d="M 0,0 H 613 V 613 H 0 Z" id="path346" />
    </clipPath>
  </defs>
  <sodipodi:namedview pagecolor="#ffffff" bordercolor="#666666" borderopacity="1" objecttolerance="10" gridtolerance="10" guidetolerance="10" inkscape:pageopacity="0" inkscape:pageshadow="2" inkscape:window-width="2560" inkscape:window-height="1384" id="namedview322" showgrid="false" units="mm" inkscape:zoom="0.99058038" inkscape:cx="717.78004" inkscape:cy="544.71835" inkscape:window-x="0" inkscape:window-y="0" inkscape:window-maximized="1" inkscape:current-layer="layer3" inkscape:document-units="mm" inkscape:pagecheckerboard="false" inkscape:document-rotation="0" />
  <g inkscape:groupmode="layer" id="layer1" inkscape:label="bg">
    <rect style="fill:#ffe141;fill-opacity:1;stroke-width:2.1864" id="rect1439" width="816.37799" height="816.37799" x="0" y="2.8421709e-14" />
  </g>
  <g id="g328" inkscape:groupmode="layer" inkscape:label="city" transform="matrix(1.3333333,0,0,1.3333333,0,2.0408e-5)">
    <g id="g330" />
    <text xml:space="preserve" style="font-style:normal;font-weight:normal;font-size:25px;line-height:1.25;font-family:sans-serif;white-space:pre;inline-size:71.035;fill:#000000;fill-opacity:1;stroke:none;stroke-width:0.264583" x="133.91087" y="181.53784" id="text282" transform="matrix(2.8346458,0,0,2.8346458,-174.94702,25.823311)">
      <tspan x="133.91087" y="181.53784">
        <tspan style="font-style:normal;font-variant:normal;font-weight:500;font-stretch:normal;font-size:24.3417px;font-family:'Clear Sans';-inkscape-font-specification:'Clear Sans Medium';text-align:center;text-anchor:middle;fill:#eec900;fill-opacity:1">B</tspan>
        <tspan style="font-style:normal;font-variant:normal;font-weight:500;font-stretch:normal;font-size:17.9917px;font-family:'Clear Sans';-inkscape-font-specification:'Clear Sans Medium';text-align:center;text-anchor:middle;fill:#eec900;fill-opacity:1">ERLIN</tspan>
      </tspan>
    </text>
    <text xml:space="preserve" style="font-style:normal;font-weight:normal;font-size:14.1732px;line-height:1.25;font-family:sans-serif;text-align:center;text-anchor:middle;white-space:pre;inline-size:129.413;fill:#000000;fill-opacity:1;stroke:none;stroke-width:0.75" x="174.12038" y="571.51501" id="text486" transform="translate(131.87967,-13.798475)">
      <tspan x="174.12038" y="571.51501">
        <tspan style="font-style:normal;font-variant:normal;font-weight:200;font-stretch:normal;font-size:14.1732px;font-family:'Clear Sans';-inkscape-font-specification:'Clear Sans Ultra-Light';text-align:center;text-anchor:middle;fill:#eec900;fill-opacity:1;stroke-width:0.75">Berlin Marathon</tspan>
      </tspan>
    </text>
    <text xml:space="preserve" style="font-style:normal;font-variant:normal;font-weight:500;font-stretch:normal;font-size:14.1732px;line-height:1.25;font-family:'Clear Sans';-inkscape-font-specification:'Clear Sans Medium';fill:#000000;fill-opacity:1;stroke:none;stroke-width:0.750001" x="207.69411" y="47.352806" id="text490-6-2">
      <tspan sodipodi:role="line" x="207.69411" y="47.352806" style="font-style:normal;font-variant:normal;font-weight:500;font-stretch:normal;font-size:14.1732px;font-family:'Clear Sans';-inkscape-font-specification:'Clear Sans Medium';text-align:end;text-anchor:end;fill:#eec900;fill-opacity:1;stroke-width:0.750001" id="tspan492-5-8">03:48:10</tspan>
      <tspan sodipodi:role="line" x="207.69411" y="65.069336" style="font-style:normal;font-variant:normal;font-weight:500;font-stretch:normal;font-size:14.1732px;font-family:'Clear Sans';-inkscape-font-specification:'Clear Sans Medium';text-align:end;text-anchor:end;fill:#eec900;fill-opacity:1;stroke-width:0.750001" id="tspan524-4">03:27:28</tspan>
      <tspan sodipodi:role="line" x="207.69411" y="82.785866" style="font-style:normal;font-variant:normal;font-weight:500;font-stretch:normal;font-size:14.1732px;font-family:'Clear Sans';-inkscape-font-specification:'Clear Sans Medium';text-align:end;text-anchor:end;fill:#eec900;fill-opacity:1;stroke-width:0.750001" id="tspan111" />
    </text>
    <text xml:space="preserve" style="font-style:normal;font-weight:normal;font-size:14.1732px;line-height:1.25;font-family:sans-serif;fill:#000000;fill-opacity:1;stroke:none;stroke-width:0.75" x="36.113392" y="47.352722" id="text490-7">
      <tspan sodipodi:role="line" id="tspan488-2" x="36.113392" y="47.352722" style="font-style:normal;font-variant:normal;font-weight:500;font-stretch:normal;font-size:14.1732px;font-family:'Clear Sans';-inkscape-font-specification:'Clear Sans Medium';fill:#eec900;fill-opacity:1;stroke-width:0.75">24.09.2017</tspan>
      <tspan sodipodi:role="line" x="36.113392" y="65.150482" style="font-style:normal;font-variant:normal;font-weight:500;font-stretch:normal;font-size:14.1732px;font-family:'Clear Sans';-inkscape-font-specification:'Clear Sans Medium';fill:#eec900;fill-opacity:1;stroke-width:0.75" id="tspan492-4">29.09.2019</tspan>
    </text>
    <path style="fill:#eec900;fill-opacity:1;stroke-width:0.411857" d="m 150.03841,481.61661 c -1.2072,-1.22239 -2.31414,-2.2225 -2.45988,-2.2225 -0.1457,0 -1.10719,0.74135 -2.13656,1.64743 -1.02935,0.90609 -2.02847,1.65352 -2.22023,1.66098 -0.19176,0.009 -13.7855,-3.82279 -30.2083,-8.51161 L 83.1538,465.66571 68.326945,447.82056 C 60.172173,438.00577 52.985614,429.34221 52.356824,428.56833 l -1.143277,-1.40706 35.739272,-32.43036 c 19.656601,-17.83673 36.202601,-32.85253 36.768911,-33.36847 0.98654,-0.89879 1.42626,-0.95031 10.50235,-1.23006 l 9.47271,-0.2919 9.60173,-4.79649 9.60174,-4.79649 -5.75231,-7.30054 -5.75229,-7.30052 2.63995,-10.18872 c 1.45196,-5.60376 3.95652,-15.29843 5.5657,-21.5437 l 2.92577,-11.35503 39.71776,-11.61152 39.71782,-11.61158 12.61518,8.5516 c 6.9384,4.70337 13.09222,8.77705 13.6753,9.05267 0.58304,0.27565 9.0312,2.25854 18.77363,4.40646 l 17.71357,3.9053 12.55794,4.92224 c 6.9069,2.70725 12.58499,4.89443 12.61806,4.86036 0.033,-0.0341 2.8342,-6.27695 6.22476,-13.87308 5.44098,-12.18982 6.66897,-14.58316 10.46037,-20.38693 l 4.29566,-6.57574 1.62936,-7.18343 c 1.02717,-4.52869 1.88714,-7.42057 2.327,-7.82528 0.3837,-0.35303 2.60774,-1.78396 4.94228,-3.17986 l 4.24459,-2.53802 19.76915,-2.29301 c 10.87303,-1.26116 28.94325,-3.22856 40.15606,-4.372 11.21281,-1.14344 20.81901,-2.17383 21.34704,-2.28976 0.88011,-0.19319 0.93629,-0.3554 0.67372,-1.9449 -0.15753,-0.95379 -0.34571,-1.7992 -0.4182,-1.87866 -0.0725,-0.0796 -2.2543,0.0138 -4.84856,0.20865 l -4.71674,0.35321 -0.86078,-6.34256 c -0.47339,-3.48844 -0.92388,-6.40571 -1.00101,-6.48284 -0.077,-0.0773 -5.40992,0.39344 -11.85057,1.04582 -6.44062,0.65239 -11.73979,1.15906 -11.77591,1.12596 -0.0364,-0.033 -0.26973,-2.45605 -0.51914,-5.38435 -0.24942,-2.92826 -0.53077,-5.40137 -0.6252,-5.49582 -0.2117,-0.2117 -36.92987,3.5905 -37.38399,3.87113 -0.17958,0.11082 -0.3265,0.42665 -0.3265,0.70148 0,0.92614 -2.53771,3.58751 -4.25734,4.46482 -5.2216,2.66384 -11.85626,-0.91514 -12.514,-6.7506 -0.92163,-8.1768 8.98158,-13.05381 14.76439,-7.271 l 1.51361,1.51362 22.27069,-2.30343 c 12.24891,-1.26693 22.37487,-2.19929 22.50222,-2.07197 0.12733,0.12733 0.42669,2.52587 0.66527,5.33011 0.23863,2.8043 0.51671,5.18287 0.61799,5.28572 0.10121,0.10277 5.30802,-0.31093 11.57051,-0.91961 6.26249,-0.60864 11.46083,-1.03215 11.55186,-0.94113 0.0909,0.0909 0.54162,3.00688 1.00129,6.47966 0.45971,3.47282 0.87211,6.35636 0.91646,6.40788 0.0443,0.0514 2.18747,-0.0911 4.76251,-0.31716 2.99787,-0.26306 4.77004,-0.26821 4.92702,-0.0138 0.33454,0.54127 2.23326,17.31272 1.98779,17.55819 -0.1078,0.1078 -10.9272,1.30586 -24.04311,2.66245 -13.11592,1.35652 -32.74321,3.49505 -43.61624,4.75225 l -19.76914,2.28588 -2.88011,1.73217 c -3.23761,1.94715 -3.0186,1.47718 -5.13374,11.01576 -0.83181,3.7514 -1.08383,4.2596 -5.33379,10.75733 -4.10559,6.277 -5.04401,8.12752 -11.78831,23.24514 -4.03019,9.03388 -7.45173,16.56995 -7.60341,16.74685 -0.15169,0.17685 -7.21091,-2.39648 -15.68718,-5.71858 l -15.41132,-6.04019 -18.73952,-4.18118 -18.7395,-4.18112 -12.22098,-8.30478 -12.22098,-8.30471 -35.9663,10.51117 c -19.78146,5.78113 -36.076,10.6371 -36.21009,10.79102 -0.1342,0.15393 -1.47664,5.09864 -2.98341,10.98819 -1.50676,5.88956 -3.54322,13.8002 -4.52545,17.57919 l -1.78586,6.87095 7.37253,9.33394 c 4.05488,5.13365 7.31307,9.38298 7.24039,9.44295 -0.0728,0.06 -6.43424,3.28237 -14.13684,7.16092 l -14.00473,7.05186 -9.0397,0.28096 -9.03969,0.28093 -33.071111,30.04893 c -18.189102,16.52674 -33.071108,30.21329 -33.071108,30.41437 0,0.2011 5.821743,7.3488 12.937217,15.8838 l 12.937221,15.51815 27.109041,7.74448 27.10905,7.74449 3.13295,-3.11456 3.13292,-3.11454 2.65239,2.95133 2.65235,2.95129 16.3132,-10.74603 16.31321,-10.74603 17.55491,0.95763 17.55491,0.95765 5.04254,5.27833 5.04257,5.27828 17.89423,-24.25735 c 9.84184,-13.34159 18.57926,-25.18407 19.41649,-26.31668 l 1.52223,-2.05929 0.47823,-28.40909 c 0.26306,-15.62498 0.52899,-28.45978 0.59095,-28.52171 0.0619,-0.062 11.65949,-1.68233 25.77237,-3.60075 14.11286,-1.91847 25.74068,-3.56902 25.83956,-3.66797 0.099,-0.099 0.59425,-3.95707 1.10069,-8.5737 0.50648,-4.61659 1.0524,-8.60662 1.21309,-8.86666 0.1608,-0.26009 1.96306,-1.42899 4.00507,-2.59755 l 3.71281,-2.12469 24.74528,8.04757 24.74523,8.04761 12.32726,-6.16628 12.32726,-6.16628 37.93731,13.63073 37.93736,13.63077 24.54249,3.84247 24.5425,3.84251 4.49383,1.89742 c 2.4716,1.04356 4.53302,1.85006 4.581,1.79216 0.0481,-0.0578 0.39547,-0.71133 0.77224,-1.45211 l 0.685,-1.3468 -11.40584,-30.5058 -11.40586,-30.50576 -15.5546,-7.68571 c -8.55503,-4.22709 -15.56859,-7.83672 -15.58564,-8.02137 -0.0363,-0.39151 26.27253,-56.3736 26.67495,-56.76133 0.14878,-0.14345 3.69935,1.3647 7.89,3.35133 4.19064,1.98659 7.65169,3.58521 7.69119,3.5524 0.0395,-0.033 4.18068,-8.12031 9.20258,-17.97223 8.9878,-17.63207 12.70991,-25.77096 12.06032,-26.37135 -0.18149,-0.16767 -9.3188,-4.60634 -20.30509,-9.86358 -10.98629,-5.25719 -20.03556,-9.61636 -20.10948,-9.68704 -0.0738,-0.0707 2.36848,-4.06535 5.42766,-8.87712 l 5.56203,-8.74867 -6.63959,-5.14544 -6.63963,-5.1454 -18.35124,-5.9617 -18.35124,-5.96172 -9.67865,0.74518 -9.67863,0.74517 -6.17786,2.132 c -3.39782,1.17259 -10.44581,3.64933 -15.66218,5.50386 l -9.48437,3.37188 0.87812,9.55393 c 0.48298,5.25468 0.76622,9.67573 0.62943,9.82451 -0.13677,0.14878 -8.92778,2.5251 -19.53549,5.28067 -10.60776,2.75554 -20.0859,5.25057 -21.06259,5.54452 -1.15862,0.34872 -3.14609,1.70652 -5.7187,3.90704 l -3.94291,3.37257 -6.63687,0.24683 -6.63687,0.24685 -5.21885,-5.17098 -5.21884,-5.17098 -46.67381,-9.12054 -46.6738,-9.12058 -14.78125,5.01168 -14.78131,5.01168 -0.27339,2.3165 c -0.26643,2.25712 -0.34148,2.36926 -2.92831,4.37577 l -2.65482,2.05928 -9.85394,20.73554 c -9.69486,20.40088 -9.85388,20.77831 -9.85388,23.38581 0,1.96729 0.15805,2.71093 0.6133,2.88564 0.59055,0.22661 112.95712,-10.85775 113.5056,-11.19671 0.14809,-0.0915 0.39085,-0.92712 0.53952,-1.85698 0.41219,-2.57769 2.00319,-5.34232 4.32348,-7.51268 3.1773,-2.972 5.2302,-3.75181 9.92938,-3.77183 3.46383,-0.0154 4.18002,0.11464 6.24363,1.12808 6.35578,3.12117 9.68897,10.11175 8.00379,16.78601 -1.78813,7.08217 -7.91496,11.48778 -15.31552,11.01282 -4.77517,-0.30646 -9.6446,-3.28913 -11.57591,-7.09062 -0.35209,-0.69303 -0.67866,-1.30671 -0.7257,-1.36366 -0.0471,-0.057 -25.92415,2.49067 -57.50468,5.66144 -31.5805,3.17072 -57.88417,5.7657 -58.45258,5.76662 -0.57351,0 -2.2601,-0.86907 -3.78959,-1.95473 l -2.75609,-1.95633 -0.0202,-5.63226 -0.0202,-5.63231 10.57974,-22.2409 c 10.33472,-21.72574 10.62481,-22.27454 12.52466,-23.69291 1.9422,-1.44997 1.94532,-1.45629 2.23131,-4.50822 l 0.28642,-3.05627 18.01977,-6.05286 18.01978,-6.05291 48.76056,9.53151 48.76054,9.53143 4.74254,4.70626 4.74253,4.70624 h 3.82801 3.82803 l 3.70438,-3.20358 3.7044,-3.20359 18.82027,-4.8876 c 10.35116,-2.68818 18.95456,-5.00418 19.11873,-5.14668 0.16406,-0.14244 -0.0857,-4.39728 -0.55481,-9.45515 -0.46932,-5.05779 -0.69628,-9.33059 -0.50439,-9.4951 0.19186,-0.16457 8.59631,-3.18971 18.67651,-6.72266 l 18.32764,-6.42356 10.82695,-0.87792 10.82694,-0.87793 19.80041,6.43001 19.8004,6.43003 9.11687,7.0375 c 5.01428,3.87063 9.37555,7.27648 9.69176,7.56853 0.48448,0.44754 -0.21173,1.75833 -4.42745,8.33574 -2.75133,4.29253 -5.00237,7.97479 -5.00237,8.18268 0,0.20791 8.66444,4.52006 19.25432,9.58257 10.58987,5.06246 19.46226,9.31604 19.71639,9.45236 1.05442,0.5656 -5.41969,14.99897 -16.27496,36.28341 -5.94916,11.66475 -10.85891,21.25092 -10.9106,21.30261 -0.0517,0.0517 -3.47149,-1.50786 -7.59962,-3.46556 -4.44744,-2.10918 -7.64877,-3.40524 -7.8567,-3.1809 -0.28193,0.30403 -19.7783,41.47421 -20.50959,43.30969 -0.13214,0.33171 4.6039,2.89512 13.55347,7.33584 l 13.75665,6.82596 12.46634,33.2853 12.46639,33.28526 -2.6866,5.30098 c -1.47762,2.91554 -2.85375,5.54714 -3.05807,5.84796 -0.29304,0.43149 -1.88409,-0.0806 -7.53477,-2.42521 l -7.1633,-2.97223 -24.5055,-3.83773 -24.50551,-3.83772 -36.65527,-13.20694 -36.65528,-13.20696 -12.35914,6.13094 -12.35908,6.13093 -24.50214,-7.96693 c -13.47613,-4.38178 -24.80968,-7.8705 -25.18565,-7.75274 -0.37592,0.11771 -0.87591,0.44595 -1.11108,0.72927 -0.23514,0.28336 -0.90152,4.8488 -1.48088,10.14545 -0.57937,5.29659 -1.09872,9.65758 -1.15414,9.69103 -0.0555,0.0333 -11.49889,1.59422 -25.42994,3.46838 -13.9311,1.8741 -25.44662,3.52925 -25.5901,3.678 -0.14346,0.14878 -0.44686,12.14497 -0.67421,26.65823 l -0.4133,26.38772 -22.59417,30.59462 -22.59418,30.59459 -7.14911,-7.29452 -7.14908,-7.29454 -14.79411,-0.81781 -14.79411,-0.81787 -4.62315,3.00928 c -2.54272,1.65513 -10.57918,6.93509 -17.85881,11.73328 l -13.23567,8.72399 -2.1949,-2.2225 z M 333.84999,219.71337 c 3.28827,-2.17605 4.20013,-6.72158 2.0337,-10.13769 -3.74697,-5.90839 -12.88024,-3.66262 -13.55236,3.33236 -0.59843,6.2279 6.26435,10.28248 11.51866,6.80533 z" id="path329" />
  </g>
  <g inkscape:groupmode="layer" id="layer3" inkscape:label="cut" style="display:inline">
    <path style="display:inline;fill:none;stroke:#000000;stroke-width:0.797566px;stroke-linecap:butt;stroke-linejoin:miter;stroke-opacity:1" d="M 11.33858,19.296422 H 0" id="path3255-7-56" />
    <path style="display:inline;fill:none;stroke:#000000;stroke-width:0.797566px;stroke-linecap:butt;stroke-linejoin:miter;stroke-opacity:1" d="M 11.3386,797.87914 H 0" id="path3255-7-56-2" />
    <path style="display:inline;fill:none;stroke:#000000;stroke-width:0.797566px;stroke-linecap:butt;stroke-linejoin:miter;stroke-opacity:1" d="m 816.37801,19.296422 h -11.3386" id="path3255-7-56-7" />
    <path style="display:inline;fill:none;stroke:#000000;stroke-width:0.797566px;stroke-linecap:butt;stroke-linejoin:miter;stroke-opacity:1" d="M 816.37799,797.87914 H 805.03941" id="path3255-7-56-0" />
    <path style="display:inline;fill:none;stroke:#000000;stroke-width:0.797566px;stroke-linecap:butt;stroke-linejoin:miter;stroke-opacity:1" d="M 19.296422,11.33858 V 0" id="path3255-7-56-9" />
    <path style="display:inline;fill:none;stroke:#000000;stroke-width:0.797566px;stroke-linecap:butt;stroke-linejoin:miter;stroke-opacity:1" d="M 797.87914,11.33858 V 0" id="path3255-7-56-9-6" />
    <path style="display:inline;fill:none;stroke:#000000;stroke-width:0.797566px;stroke-linecap:butt;stroke-linejoin:miter;stroke-opacity:1" d="M 19.296422,816.37799 V 805.03941" id="path3255-7-56-9-0" />
    <path style="display:inline;fill:none;stroke:#000000;stroke-width:0.797566px;stroke-linecap:butt;stroke-linejoin:miter;stroke-opacity:1" d="M 797.87914,816.37799 V 805.03941" id="path3255-7-56-9-62" />
  </g>
</svg>
