<?xml version="1.0" encoding="UTF-8" standalone="no"?>
<svg
   xmlns:dc="http://purl.org/dc/elements/1.1/"
   xmlns:cc="http://creativecommons.org/ns#"
   xmlns:rdf="http://www.w3.org/1999/02/22-rdf-syntax-ns#"
   xmlns:svg="http://www.w3.org/2000/svg"
   xmlns="http://www.w3.org/2000/svg"
   xmlns:sodipodi="http://sodipodi.sourceforge.net/DTD/sodipodi-0.dtd"
   xmlns:inkscape="http://www.inkscape.org/namespaces/inkscape"
   version="1.1"
   id="svg320"
   xml:space="preserve"
   width="216mm"
   height="216mm"
   viewBox="0 0 816.37797 816.37797"
   sodipodi:docname="boston.svg"
   inkscape:version="1.0.2 (e86c870879, 2021-01-15, custom)"
   inkscape:export-xdpi="300"
   inkscape:export-ydpi="300"><metadata
     id="metadata326"><rdf:RDF><cc:Work
         rdf:about=""><dc:format>image/svg+xml</dc:format><dc:type
           rdf:resource="http://purl.org/dc/dcmitype/StillImage" /><dc:title /></cc:Work></rdf:RDF></metadata><defs
     id="defs324"><clipPath
       clipPathUnits="userSpaceOnUse"
       id="clipPath338"><path
         d="M 0,0 H 612 V 612 H 0 Z"
         id="path336" /></clipPath><clipPath
       clipPathUnits="userSpaceOnUse"
       id="clipPath348"><path
         d="M 0,0 H 613 V 613 H 0 Z"
         id="path346" /></clipPath></defs><sodipodi:namedview
     pagecolor="#ffffff"
     bordercolor="#666666"
     borderopacity="1"
     objecttolerance="10"
     gridtolerance="10"
     guidetolerance="10"
     inkscape:pageopacity="0"
     inkscape:pageshadow="2"
     inkscape:window-width="2560"
     inkscape:window-height="1384"
     id="namedview322"
     showgrid="false"
     units="mm"
     inkscape:zoom="1.9026482"
     inkscape:cx="322.33217"
     inkscape:cy="519.47364"
     inkscape:window-x="0"
     inkscape:window-y="0"
     inkscape:window-maximized="1"
     inkscape:current-layer="g328"
     inkscape:document-units="mm"
     inkscape:pagecheckerboard="false"
     inkscape:document-rotation="0" /><g
     inkscape:groupmode="layer"
     id="layer1"
     inkscape:label="bg"><rect
       style="fill:#ffe84d;fill-opacity:1;stroke-width:2.1864"
       id="rect1439"
       width="816.37799"
       height="816.37799"
       x="0"
       y="2.8421709e-14"
       inkscape:export-filename="/home/schaechinger/Bilder/wmm/bright-colors/png/3mm/boston.png"
       inkscape:export-xdpi="300"
       inkscape:export-ydpi="300" /></g><g
     id="g328"
     inkscape:groupmode="layer"
     inkscape:label="city"
     transform="matrix(1.3333333,0,0,1.3333333,0,2.0408e-5)"><g
       id="g330" /><text
       xml:space="preserve"
       style="font-style:normal;font-weight:normal;font-size:25px;line-height:1.25;font-family:sans-serif;text-align:center;text-anchor:middle;white-space:pre;inline-size:150.203;fill:#000000;fill-opacity:1;stroke:none;stroke-width:0.264583"
       x="133.91087"
       y="181.53784"
       id="text282"
       transform="matrix(2.8346458,0,0,2.8346458,-72.696998,25.823311)"><tspan
         x="133.91087"
         y="181.53784"><tspan
           style="font-style:normal;font-variant:normal;font-weight:500;font-stretch:normal;font-size:24.3417px;font-family:'Clear Sans';-inkscape-font-specification:'Clear Sans Medium';text-align:center;text-anchor:middle;fill:#f1d309;fill-opacity:1">B</tspan><tspan
           style="font-style:normal;font-variant:normal;font-weight:500;font-stretch:normal;font-size:17.9917px;font-family:'Clear Sans';-inkscape-font-specification:'Clear Sans Medium';text-align:center;text-anchor:middle;fill:#f1d309;fill-opacity:1">OSTON</tspan></tspan></text><text
       xml:space="preserve"
       style="font-style:normal;font-weight:normal;font-size:14.1732px;line-height:1.25;font-family:sans-serif;text-align:center;text-anchor:middle;white-space:pre;inline-size:129.413;fill:#000000;fill-opacity:1;stroke:none;stroke-width:0.75"
       x="174.12038"
       y="571.51501"
       id="text486"
       transform="translate(132.0048,-14.104177)"><tspan
         x="174.12038"
         y="571.51501"><tspan
           style="font-style:normal;font-variant:normal;font-weight:200;font-stretch:normal;font-size:14.1732px;font-family:'Clear Sans';-inkscape-font-specification:'Clear Sans Ultra-Light';text-align:center;text-anchor:middle;fill:#f1d309;fill-opacity:1;stroke-width:0.75">Boston Marathon</tspan></tspan></text><path
       style="fill:#f1d309;fill-opacity:1;stroke-width:0.283534"
       d="m 133.42841,486.44034 c -4.57595,-1.14009 -7.67168,-5.37853 -7.20822,-9.86896 0.22152,-2.14639 1.62542,-4.89108 3.13411,-6.12731 1.6225,-1.32953 3.06928,-1.9113 5.256,-2.11352 l 1.81867,-0.1682 1.89343,-4.49673 1.89342,-4.49674 4.29244,-2.32083 4.29243,-2.32084 3.20531,-4.24025 c 3.30151,-4.36756 6.14386,-9.27547 9.35973,-16.16172 l 1.59502,-3.41545 1.18601,-8.48626 1.186,-8.48625 5.63243,-6.45074 5.63242,-6.45076 v -8.84109 -8.84109 l 2.19221,-5.34873 c 2.15723,-5.26344 2.2081,-5.35292 3.18975,-5.61028 0.54865,-0.14384 2.91141,-0.72245 5.25057,-1.2858 l 4.25301,-1.02426 5.79947,-8.23245 5.79947,-8.23246 7.21656,-6.91712 7.21654,-6.91712 9.95023,-6.16511 c 6.47396,-4.01122 10.88175,-6.94658 12.61655,-8.40199 1.4665,-1.23029 3.06138,-2.33896 3.54418,-2.46372 0.48283,-0.12478 2.28134,-0.38228 3.99672,-0.57225 1.71538,-0.19 3.32293,-0.44918 3.57233,-0.57597 0.2494,-0.12681 4.45811,-3.56862 9.35274,-7.64844 l 8.89928,-7.41791 5.30786,-9.07805 c 4.14441,-7.08821 6.11975,-10.14243 9.01184,-13.93404 l 3.70402,-4.85604 7.59984,-3.91953 7.59984,-3.91952 2.74338,-3.40799 2.74337,-3.408 v -4.97553 -4.97558 l 1.97694,-3.74574 1.97694,-3.74577 0.44861,-5.56917 0.4486,-5.56914 2.14891,-4.88249 2.14893,-4.88245 -0.1892,-3.83454 c -0.10408,-2.10901 -0.257,-4.4087 -0.33993,-5.11045 l -0.15076,-1.2759 2.54041,-2.70769 c 2.49108,-2.65507 2.56255,-2.77076 3.67988,-5.95422 0.62669,-1.78557 1.47948,-4.81882 1.89508,-6.74053 0.41558,-1.92171 1.26381,-4.84693 1.88491,-6.50052 l 1.12929,-3.00649 -0.34325,-5.48371 c -0.1888,-3.01604 -0.29232,-5.53108 -0.23005,-5.589 0.0623,-0.0579 1.26155,0.0692 2.66504,0.28232 1.40349,0.21319 2.81404,0.39036 3.13457,0.39373 0.32054,0.004 2.32342,-1.02366 4.45087,-2.28227 l 3.86805,-2.2884 2.77926,0.75853 2.77929,0.75855 1.70946,-1.83744 c 1.6508,-1.77443 1.76816,-1.84425 3.42157,-2.03615 1.7004,-0.19735 1.72081,-0.21066 2.98759,-1.94896 0.71726,-0.98422 2.21304,-2.46471 3.41767,-3.38266 1.83769,-1.40041 2.90297,-1.91836 7.4949,-3.64418 l 5.35274,-2.01176 1.90395,0.35626 c 1.80361,0.33749 1.93067,0.32551 2.41004,-0.22727 0.27833,-0.32095 3.63204,-2.34476 7.45266,-4.49735 3.82062,-2.15259 7.60757,-4.39513 8.41552,-4.98343 0.80789,-0.58828 1.9803,-1.27424 2.60535,-1.52434 1.23607,-0.49457 1.21239,-0.43404 2.33381,-5.96376 l 0.35065,-1.72906 4.70132,-2.35486 4.70137,-2.35484 3.91532,-0.35786 c 2.58622,-0.23637 4.51121,-0.27165 5.67068,-0.10396 0.96546,0.13966 2.06176,0.2565 2.43626,0.25963 0.51008,0.005 2.16578,-1.46843 6.59982,-5.87044 5.38437,-5.34546 6.14228,-5.99201 8.39218,-7.15923 l 2.47327,-1.2831 12.28141,-15.0273 12.28142,-15.02729 3.44028,-1.9054 c 2.70738,-1.499469 3.92661,-2.386529 5.723,-4.163897 l 2.2827,-2.258501 1.13414,0.969922 c 0.62377,0.533458 1.27385,0.971825 1.4446,0.97414 0.70215,0.0095 1.29567,-1.11736 1.36667,-2.594784 0.0886,-1.842853 0.69738,-3.082983 2.00197,-4.078057 1.96007,-1.495027 4.57944,-1.473278 6.59932,0.05482 4.1291,3.123799 1.17079,10.074102 -3.98701,9.367146 -1.20474,-0.165123 -1.25517,-0.137148 -3.53529,1.960921 -2.51436,2.31364 -2.61995,2.33584 -4.01513,0.84429 l -0.69191,-0.7397 -1.00929,0.95404 c -0.55511,0.52473 -2.37171,1.69056 -4.03687,2.59075 -1.6652,0.90017 -3.34329,1.97222 -3.7291,2.38231 -0.38581,0.4101 -6.01852,7.25273 -12.51709,15.20586 l -11.81563,14.46023 -2.45971,1.22987 c -2.21866,1.10936 -2.95978,1.72092 -7.56329,6.24126 -2.80699,2.75627 -5.83102,5.70104 -6.72008,6.54394 l -1.61645,1.53255 -3.62893,-0.35112 c -2.6074,-0.25227 -4.4386,-0.27258 -6.50534,-0.0722 -2.70696,0.2625 -3.06551,0.37644 -6.08648,1.93392 l -3.21003,1.65499 -0.72242,3.54418 -0.72241,3.54417 -2.56531,1.2759 c -1.41091,0.70175 -2.90959,1.55048 -3.33035,1.88607 -0.4208,0.33559 -3.86738,2.36519 -7.65908,4.51022 -6.83122,3.86457 -6.90144,3.91387 -7.71332,5.41474 -0.55694,1.02956 -0.95877,1.47379 -1.25468,1.38703 -0.23945,-0.0702 -1.51644,-0.39905 -2.83773,-0.7308 l -2.40233,-0.60317 -4.40248,1.63883 c -5.26322,1.95923 -6.86938,3.07472 -9.35697,6.49856 -0.93161,1.28228 -1.899,2.41012 -2.14969,2.50633 -0.2507,0.0962 -1.0723,0.17491 -1.82574,0.17491 -1.34585,0 -1.40648,0.0392 -3.45012,2.23584 l -2.08018,2.23581 -3.2818,-0.84809 -3.28179,-0.84807 -3.62117,2.15644 c -2.91277,1.73455 -3.84569,2.15642 -4.76876,2.15642 h -1.14758 l 0.15501,3.03755 0.15503,3.03756 -1.25466,3.37205 c -0.69007,1.85462 -1.63032,5.04908 -2.08945,7.09878 -0.45912,2.04972 -1.39935,5.32161 -2.08939,7.27091 -1.20868,3.41435 -1.33346,3.62872 -3.40674,5.85285 l -2.15213,2.30867 0.31207,4.63791 0.31209,4.6379 -2.2658,5.10361 -2.26581,5.10362 -0.43951,5.58727 -0.43952,5.58729 -2.00681,3.91259 -2.00679,3.91263 v 5.14845 5.14845 l -3.55002,4.38991 -3.55001,4.38986 -7.5787,3.90143 -7.5787,3.90143 -3.23845,4.25758 c -2.36111,3.10409 -4.72063,6.79008 -8.70924,13.60535 l -5.47075,9.34777 -9.82284,8.1852 c -5.40257,4.50183 -9.9297,8.25124 -10.06032,8.33195 -0.13063,0.0807 -1.80702,0.33965 -3.72536,0.57536 -1.91833,0.23569 -3.74304,0.4822 -4.05493,0.54779 -0.31189,0.0656 -1.5947,0.98564 -2.85071,2.04461 -1.33067,1.12195 -6.40182,4.4693 -12.15227,8.02141 l -9.86857,6.09598 -6.98631,6.69982 -6.98629,6.69986 -6.1809,8.75274 -6.18089,8.75278 -4.87693,1.16051 -4.87693,1.16052 -1.52656,3.65703 -1.52657,3.65705 -0.14435,9.53586 -0.14438,9.53587 -5.60548,6.40609 c -3.44515,3.93721 -5.66655,6.71021 -5.76392,7.19516 -0.0871,0.434 -0.62061,4.10642 -1.18548,8.16095 l -1.02704,7.37189 -1.69824,3.68594 c -3.47288,7.53766 -6.34992,12.50237 -10.22853,17.65061 l -3.68525,4.89162 -4.04133,2.17924 -4.04134,2.17925 -1.48608,3.63136 -1.48607,3.63136 1.01416,1.12256 c 1.89296,2.09526 2.31314,3.23121 2.31249,6.25173 -5.6e-4,2.36575 -0.0919,2.8661 -0.75069,4.11124 -1.98951,3.76006 -6.41845,5.9028 -10.23526,4.9519 z m 4.03887,-5.33616 c 2.05866,-1.10408 2.82766,-4.16747 1.49445,-5.95316 -2.58263,-3.45915 -7.7319,-1.99517 -7.72849,2.19724 0.002,3.27986 3.3553,5.29978 6.23404,3.75592 z"
       id="path1137" /></g><g
     inkscape:groupmode="layer"
     id="layer4"
     inkscape:label="cut"
     style="display:none"><path
       style="display:inline;fill:none;stroke:#000000;stroke-width:0.797566px;stroke-linecap:butt;stroke-linejoin:miter;stroke-opacity:1"
       d="M 11.33858,19.29642 H 0"
       id="path3255-7-56" /><path
       style="display:inline;fill:none;stroke:#000000;stroke-width:0.797566px;stroke-linecap:butt;stroke-linejoin:miter;stroke-opacity:1"
       d="M 11.3386,797.87914 H 0"
       id="path3255-7-56-2" /><path
       style="display:inline;fill:none;stroke:#000000;stroke-width:0.797566px;stroke-linecap:butt;stroke-linejoin:miter;stroke-opacity:1"
       d="m 816.37801,19.29642 h -11.3386"
       id="path3255-7-56-7" /><path
       style="display:inline;fill:none;stroke:#000000;stroke-width:0.797566px;stroke-linecap:butt;stroke-linejoin:miter;stroke-opacity:1"
       d="M 816.37799,797.87914 H 805.03941"
       id="path3255-7-56-0" /><path
       style="display:inline;fill:none;stroke:#000000;stroke-width:0.797566px;stroke-linecap:butt;stroke-linejoin:miter;stroke-opacity:1"
       d="M 19.29642,11.33858 V 0"
       id="path3255-7-56-9" /><path
       style="display:inline;fill:none;stroke:#000000;stroke-width:0.797566px;stroke-linecap:butt;stroke-linejoin:miter;stroke-opacity:1"
       d="M 797.87914,11.33858 V 0"
       id="path3255-7-56-9-6" /><path
       style="display:inline;fill:none;stroke:#000000;stroke-width:0.797566px;stroke-linecap:butt;stroke-linejoin:miter;stroke-opacity:1"
       d="M 19.29642,816.37799 V 805.03941"
       id="path3255-7-56-9-0" /><path
       style="display:inline;fill:none;stroke:#000000;stroke-width:0.797566px;stroke-linecap:butt;stroke-linejoin:miter;stroke-opacity:1"
       d="M 797.87914,816.37799 V 805.03941"
       id="path3255-7-56-9-62" /></g></svg>
