<?xml version="1.0" encoding="UTF-8" standalone="no"?>
<svg
   xmlns:dc="http://purl.org/dc/elements/1.1/"
   xmlns:cc="http://creativecommons.org/ns#"
   xmlns:rdf="http://www.w3.org/1999/02/22-rdf-syntax-ns#"
   xmlns:svg="http://www.w3.org/2000/svg"
   xmlns="http://www.w3.org/2000/svg"
   xmlns:sodipodi="http://sodipodi.sourceforge.net/DTD/sodipodi-0.dtd"
   xmlns:inkscape="http://www.inkscape.org/namespaces/inkscape"
   version="1.1"
   id="svg320"
   xml:space="preserve"
   width="216mm"
   height="216mm"
   viewBox="0 0 816.37797 816.37797"
   sodipodi:docname="chicago.svg"
   inkscape:version="1.0.2 (e86c870879, 2021-01-15, custom)"
   inkscape:export-xdpi="300"
   inkscape:export-ydpi="300"><metadata
     id="metadata326"><rdf:RDF><cc:Work
         rdf:about=""><dc:format>image/svg+xml</dc:format><dc:type
           rdf:resource="http://purl.org/dc/dcmitype/StillImage" /><dc:title /></cc:Work></rdf:RDF></metadata><defs
     id="defs324"><clipPath
       clipPathUnits="userSpaceOnUse"
       id="clipPath338"><path
         d="M 0,0 H 612 V 612 H 0 Z"
         id="path336" /></clipPath><clipPath
       clipPathUnits="userSpaceOnUse"
       id="clipPath348"><path
         d="M 0,0 H 613 V 613 H 0 Z"
         id="path346" /></clipPath></defs><sodipodi:namedview
     pagecolor="#ffffff"
     bordercolor="#666666"
     borderopacity="1"
     objecttolerance="10"
     gridtolerance="10"
     guidetolerance="10"
     inkscape:pageopacity="0"
     inkscape:pageshadow="2"
     inkscape:window-width="2560"
     inkscape:window-height="1384"
     id="namedview322"
     showgrid="false"
     units="mm"
     inkscape:zoom="0.97686226"
     inkscape:cx="70.15541"
     inkscape:cy="598.11307"
     inkscape:window-x="0"
     inkscape:window-y="0"
     inkscape:window-maximized="1"
     inkscape:current-layer="layer9"
     inkscape:document-units="mm"
     inkscape:pagecheckerboard="false"
     inkscape:document-rotation="0" /><g
     inkscape:groupmode="layer"
     id="layer1"
     inkscape:label="bg"><rect
       style="fill:#33bdff;fill-opacity:1;stroke-width:2.1864"
       id="rect1439"
       width="816.37799"
       height="816.37799"
       x="0"
       y="2.8421709e-14" /><path
       style="fill:#0094da;fill-opacity:1;stroke-width:0.377852"
       d="m 466.18435,638.97791 v -9.25737 h -6.23455 -6.23455 V 594.2045 558.68846 l -33.9712,-0.0965 -33.97115,-0.0965 9.02158,-8.50166 9.02162,-8.50166 0.0118,-5.57331 0.0118,-5.57331 h -24.18249 -24.1825 V 502.19564 474.0457 h 24.1825 24.18249 v -9.63521 -9.63521 h -47.60929 -47.60929 v -9.06844 -9.06844 h 55.90676 55.90672 l 0.10981,-3.11727 0.1097,-3.11728 8.21827,-0.10178 8.21827,-0.10178 v -17.94058 -17.94058 h 2.07818 2.07819 V 347.27652 300.234 h -3.21174 -3.21174 v -26.56942 -26.56942 l -3.97356,-13.3836 -3.97352,-13.38358 -2.03337,-2.08298 c -1.42251,-1.45724 -3.13564,-4.05486 -5.70284,-8.64726 l -3.66951,-6.56431 3.63078,-3.64445 3.63077,-3.64445 v -14.06969 -14.06969 l -9.47753,-18.95207 -9.47751,-18.95208 7.68272,0.24892 c 4.22551,0.1369 10.10571,0.24936 13.06712,0.2499 l 5.38446,9.9e-4 v 3.96882 3.96881 l 5.76224,12.75112 5.76224,12.75112 0.18892,18.51472 0.18893,18.51472 1.71313,0.11183 1.71314,0.11182 5.5285,8.9566 c 3.04069,4.92613 5.71557,9.38169 5.94424,9.90123 0.22865,0.51955 1.41257,4.38049 2.63091,8.57988 l 2.21523,7.63524 -1.55984,0.20845 c -0.85792,0.11465 -2.58004,0.24947 -3.82695,0.29963 l -2.26711,0.0912 -0.10084,9.70901 -0.10072,9.70905 6.47716,15.41808 c 3.56242,8.47997 6.55542,15.62117 6.6511,15.86939 0.10155,0.2637 -0.97826,1.02817 -2.59788,1.83907 -1.52448,0.76331 -2.82006,1.43036 -2.87904,1.48231 -0.059,0.052 -0.35942,1.68987 -0.66756,3.63978 -0.48304,3.0567 -0.54637,13.15194 -0.4595,73.25888 l 0.10084,69.7136 h 2.83388 2.83389 l 0.0966,-31.45614 0.0967,-31.45614 h 17.79783 17.79778 l -0.20797,0.85017 c -0.11442,0.46759 -1.068,5.51021 -2.11913,11.20579 l -1.91118,10.35566 v 13.85177 13.85182 l 2.0769,0.86081 c 2.79334,1.15778 5.58178,3.73929 6.85917,6.3503 1.46675,2.9979 1.69206,7.67076 0.51977,10.78017 -1.07528,2.85221 -3.94057,5.97837 -6.73905,7.35265 -1.89633,0.93121 -2.57423,1.0558 -5.74535,1.0558 -3.30163,0 -3.80191,-0.10167 -6.12422,-1.24389 -7.34055,-3.61056 -9.61129,-12.58061 -4.97467,-19.65123 1.32652,-2.02283 4.76746,-4.64297 6.75152,-5.14089 l 0.95246,-0.23908 V 409.70925 394.8858 l 1.12799,-6.04562 c 0.6204,-3.3251 1.21809,-6.4282 1.32818,-6.89579 l 0.2002,-0.85017 h -10.58703 -10.58705 v 31.36168 31.36167 h -9.44629 -9.44629 V 369.9591 c 0,-64.25542 0.0751,-74.38816 0.57789,-77.93188 0.83066,-5.85522 0.75717,-5.66773 2.59519,-6.61973 l 1.64932,-0.85429 -5.62757,-13.35992 -5.62753,-13.35992 0.0991,-13.84538 0.0991,-13.8454 2.69638,-0.18892 2.69635,-0.18893 -1.09381,-3.68703 c -0.92682,-3.12418 -1.79256,-4.82575 -5.67109,-11.14662 -2.51747,-4.10277 -4.61077,-7.49979 -4.65177,-7.54895 -0.041,-0.0491 -1.50789,-0.21919 -3.2598,-0.37785 l -3.18238,-0.28849 -0.0978,-20.69831 -0.0977,-20.6983 -5.85348,-13.07567 c -3.80334,-8.49609 -5.85344,-13.52108 -5.85344,-14.34741 v -1.27177 h -4.15637 c -2.286,0 -4.15637,0.0858 -4.15637,0.19086 0,0.10497 3.23063,6.65039 7.17918,14.54535 l 7.17918,14.35449 v 16.52406 16.52405 l -2.69767,2.71582 -2.69772,2.7158 2.16509,3.90548 c 1.37421,2.47887 3.0298,4.80262 4.53241,6.36151 l 2.36731,2.45603 4.40074,14.92514 4.40071,14.92513 v 23.33233 23.33233 h 3.02282 3.02281 v 53.84385 53.84385 h -2.07819 -2.07818 v 17.94795 17.94795 h -8.31273 -8.31274 v 1.26972 c 0,0.69839 -0.10804,2.05809 -0.24012,3.02157 l -0.24009,1.75183 -55.58747,0.0958 -55.58744,0.0958 -0.1117,2.5505 -0.11171,2.5505 h 47.81548 47.8155 v 16.05869 16.05869 h -24.1825 -24.1825 v 21.53753 21.53754 h 24.1825 24.1825 l 0.009,10.29645 0.009,10.29646 -4.07181,3.85778 -4.0718,3.85776 28.81118,0.0151 28.81118,0.0151 v 35.51804 35.51804 h 6.23455 6.23455 v 9.44629 9.44629 h 5.28992 5.28992 V 628.732 615.65225 l -2.26711,-2.55718 -2.26711,-2.55719 v -65.22325 -65.22329 h 6.23455 6.23455 l -0.005,-4.25083 -0.005,-4.25083 -1.28462,-0.83193 c -1.71269,-1.10906 -3.07715,-2.97327 -3.59147,-4.90678 -1.2083,-4.54244 2.12816,-9.30372 6.8962,-9.84117 4.76682,-0.53727 8.94696,3.32928 8.94696,8.27589 0,1.84275 -1.67747,4.98427 -3.22364,6.03716 l -1.30541,0.88898 -0.004,7.84041 -0.004,7.84042 h -6.23455 -6.23455 v 60.43584 60.43588 l 2.45603,2.80486 2.45604,2.80491 v 17.43055 17.43057 h -11.90233 -11.90232 v -9.25737 z m 30.28843,-194.84519 c 2.13002,-0.63815 4.3465,-3.17505 4.67232,-5.3477 0.7297,-4.86586 -3.69516,-8.99381 -8.31874,-7.76062 -3.18299,0.849 -5.10447,3.32627 -5.10447,6.58094 0,3.06078 1.62272,5.42514 4.40393,6.41681 1.81369,0.64666 2.49949,0.66408 4.34696,0.11052 z"
       id="path203" /></g><g
     id="g328"
     inkscape:groupmode="layer"
     inkscape:label="city"
     transform="matrix(1.3333333,0,0,1.3333333,0,2.0408e-5)"><g
       id="g330" /><text
       xml:space="preserve"
       style="font-style:normal;font-weight:normal;font-size:25px;line-height:1.25;font-family:sans-serif;text-align:center;text-anchor:middle;white-space:pre;inline-size:117.994;fill:#000000;fill-opacity:1;stroke:none;stroke-width:0.264583"
       x="133.91087"
       y="181.53784"
       id="text282"
       transform="matrix(2.8346458,0,0,2.8346458,-73.933592,26.927313)"><tspan
         x="133.91087"
         y="181.53784"><tspan
           style="font-style:normal;font-variant:normal;font-weight:500;font-stretch:normal;font-size:24.3417px;font-family:'Clear Sans';-inkscape-font-specification:'Clear Sans Medium';text-align:center;text-anchor:middle;fill:#0094da;fill-opacity:1">C</tspan><tspan
           style="font-style:normal;font-variant:normal;font-weight:500;font-stretch:normal;font-size:17.9917px;font-family:'Clear Sans';-inkscape-font-specification:'Clear Sans Medium';text-align:center;text-anchor:middle;fill:#0094da;fill-opacity:1">HICAGO</tspan></tspan></text><text
       xml:space="preserve"
       style="font-style:normal;font-weight:normal;font-size:14.1732px;line-height:1.25;font-family:sans-serif;text-align:center;text-anchor:middle;white-space:pre;inline-size:129.413;fill:#000000;fill-opacity:1;stroke:none;stroke-width:0.75"
       x="174.12038"
       y="571.51501"
       id="text486"
       transform="translate(132.21272,-13.798475)"><tspan
         x="174.12038"
         y="571.51501"><tspan
           style="font-style:normal;font-variant:normal;font-weight:200;font-stretch:normal;font-size:14.1732px;font-family:'Clear Sans';-inkscape-font-specification:'Clear Sans Ultra-Light';text-align:center;text-anchor:middle;fill:#0094da;fill-opacity:1;stroke-width:0.75">Chicago Marathon</tspan></tspan></text><text
       xml:space="preserve"
       style="font-style:normal;font-weight:normal;font-size:14.1732px;line-height:1.25;font-family:sans-serif;fill:#000000;fill-opacity:1;stroke:none;stroke-width:0.75"
       x="404.58902"
       y="47.352722"
       id="text490"><tspan
         sodipodi:role="line"
         x="404.58902"
         y="47.352722"
         style="font-style:normal;font-variant:normal;font-weight:500;font-stretch:normal;font-size:14.1732px;font-family:'Clear Sans';-inkscape-font-specification:'Clear Sans Medium';fill:#0094da;fill-opacity:1;stroke-width:0.75"
         id="tspan492">07.10.2018</tspan></text><text
       xml:space="preserve"
       style="font-style:normal;font-weight:normal;font-size:14.1732px;line-height:1.25;font-family:sans-serif;fill:#000000;fill-opacity:1;stroke:none;stroke-width:0.75"
       x="577.4455"
       y="47.352722"
       id="text490-6"><tspan
         sodipodi:role="line"
         x="577.4455"
         y="47.352722"
         style="font-style:normal;font-variant:normal;font-weight:500;font-stretch:normal;font-size:14.1732px;font-family:'Clear Sans';-inkscape-font-specification:'Clear Sans Medium';text-align:end;text-anchor:end;fill:#0094da;fill-opacity:1;stroke-width:0.75"
         id="tspan524">03:36:31</tspan></text></g><g
     inkscape:groupmode="layer"
     id="layer9"
     inkscape:label="cut"><path
       style="display:inline;fill:none;stroke:#000000;stroke-width:0.797566px;stroke-linecap:butt;stroke-linejoin:miter;stroke-opacity:1"
       d="M 11.33858,19.296422 H 0"
       id="path3255-7-56" /><path
       style="display:inline;fill:none;stroke:#000000;stroke-width:0.797566px;stroke-linecap:butt;stroke-linejoin:miter;stroke-opacity:1"
       d="M 11.3386,797.87914 H 0"
       id="path3255-7-56-2" /><path
       style="display:inline;fill:none;stroke:#000000;stroke-width:0.797566px;stroke-linecap:butt;stroke-linejoin:miter;stroke-opacity:1"
       d="m 816.37801,19.296422 h -11.3386"
       id="path3255-7-56-7" /><path
       style="display:inline;fill:none;stroke:#000000;stroke-width:0.797566px;stroke-linecap:butt;stroke-linejoin:miter;stroke-opacity:1"
       d="M 816.37799,797.87914 H 805.03941"
       id="path3255-7-56-0" /><path
       style="display:inline;fill:none;stroke:#000000;stroke-width:0.797566px;stroke-linecap:butt;stroke-linejoin:miter;stroke-opacity:1"
       d="M 19.296422,11.33858 V 0"
       id="path3255-7-56-9" /><path
       style="display:inline;fill:none;stroke:#000000;stroke-width:0.797566px;stroke-linecap:butt;stroke-linejoin:miter;stroke-opacity:1"
       d="M 797.87914,11.33858 V 0"
       id="path3255-7-56-9-6" /><path
       style="display:inline;fill:none;stroke:#000000;stroke-width:0.797566px;stroke-linecap:butt;stroke-linejoin:miter;stroke-opacity:1"
       d="M 19.296422,816.37799 V 805.03941"
       id="path3255-7-56-9-0" /><path
       style="display:inline;fill:none;stroke:#000000;stroke-width:0.797566px;stroke-linecap:butt;stroke-linejoin:miter;stroke-opacity:1"
       d="M 797.87914,816.37799 V 805.03941"
       id="path3255-7-56-9-62" /></g></svg>
