<?xml version="1.0" encoding="UTF-8" standalone="no"?>
<svg
   version="1.1"
   id="svg320"
   xml:space="preserve"
   width="216mm"
   height="216mm"
   viewBox="0 0 816.37797 816.37797"
   sodipodi:docname="london.svg"
   inkscape:version="1.1.1 (3bf5ae0d25, 2021-09-20)"
   inkscape:export-filename="/home/schaechinger/Bilder/wmm/bright-colors/png/3mm/london.png"
   inkscape:export-xdpi="300"
   inkscape:export-ydpi="300"
   xmlns:inkscape="http://www.inkscape.org/namespaces/inkscape"
   xmlns:sodipodi="http://sodipodi.sourceforge.net/DTD/sodipodi-0.dtd"
   xmlns="http://www.w3.org/2000/svg"
   xmlns:svg="http://www.w3.org/2000/svg"
   xmlns:rdf="http://www.w3.org/1999/02/22-rdf-syntax-ns#"
   xmlns:cc="http://creativecommons.org/ns#"
   xmlns:dc="http://purl.org/dc/elements/1.1/"><metadata
     id="metadata326"><rdf:RDF><cc:Work
         rdf:about=""><dc:format>image/svg+xml</dc:format><dc:type
           rdf:resource="http://purl.org/dc/dcmitype/StillImage" /><dc:title /></cc:Work></rdf:RDF></metadata><defs
     id="defs324"><clipPath
       clipPathUnits="userSpaceOnUse"
       id="clipPath338"><path
         d="M 0,0 H 612 V 612 H 0 Z"
         id="path336" /></clipPath><clipPath
       clipPathUnits="userSpaceOnUse"
       id="clipPath348"><path
         d="M 0,0 H 613 V 613 H 0 Z"
         id="path346" /></clipPath></defs><sodipodi:namedview
     pagecolor="#ffffff"
     bordercolor="#666666"
     borderopacity="1"
     objecttolerance="10"
     gridtolerance="10"
     guidetolerance="10"
     inkscape:pageopacity="0"
     inkscape:pageshadow="2"
     inkscape:window-width="2560"
     inkscape:window-height="1383"
     id="namedview322"
     showgrid="false"
     units="mm"
     inkscape:zoom="0.98481452"
     inkscape:cx="355.90458"
     inkscape:cy="391.95198"
     inkscape:window-x="0"
     inkscape:window-y="0"
     inkscape:window-maximized="1"
     inkscape:current-layer="layer1"
     inkscape:document-units="mm"
     inkscape:pagecheckerboard="false"
     inkscape:document-rotation="0" /><g
     inkscape:groupmode="layer"
     id="layer1"
     inkscape:label="bg"><rect
       style="fill:#f64d65;fill-opacity:1;stroke-width:2.1864"
       id="rect1439"
       width="816.37799"
       height="816.37799"
       x="0"
       y="2.8421709e-14" /><text
       xml:space="preserve"
       style="font-style:normal;font-weight:normal;font-size:18.8976px;line-height:1.25;font-family:sans-serif;display:inline;fill:#000000;fill-opacity:1;stroke:none;stroke-width:1"
       x="539.45203"
       y="63.136982"
       id="text490"><tspan
         sodipodi:role="line"
         x="539.45203"
         y="63.136982"
         style="font-style:normal;font-variant:normal;font-weight:500;font-stretch:normal;font-size:18.8976px;font-family:'Clear Sans';-inkscape-font-specification:'Clear Sans Medium';fill:#e60c2b;fill-opacity:1;stroke-width:1"
         id="tspan492">03.10.2021</tspan></text><text
       xml:space="preserve"
       style="font-style:normal;font-weight:normal;font-size:18.8976px;line-height:1.25;font-family:sans-serif;display:inline;fill:#000000;fill-opacity:1;stroke:none;stroke-width:1"
       x="769.92737"
       y="63.136982"
       id="text490-6"><tspan
         sodipodi:role="line"
         x="769.92737"
         y="63.136982"
         style="font-style:normal;font-variant:normal;font-weight:500;font-stretch:normal;font-size:18.8976px;font-family:'Clear Sans';-inkscape-font-specification:'Clear Sans Medium';text-align:end;text-anchor:end;fill:#e60c2b;fill-opacity:1;stroke-width:1"
         id="tspan524">04:13:11</tspan></text></g><g
     id="g328"
     inkscape:groupmode="layer"
     inkscape:label="city"
     transform="matrix(1.3333333,0,0,1.3333333,0,2.0408e-5)"><g
       id="g330" /><text
       xml:space="preserve"
       style="font-style:normal;font-weight:normal;font-size:25px;line-height:1.25;font-family:sans-serif;text-align:center;text-anchor:middle;white-space:pre;inline-size:124.234;fill:#000000;fill-opacity:1;stroke:none;stroke-width:0.264583"
       x="166.76315"
       y="181.53784"
       id="text282"
       transform="matrix(2.8346458,0,0,2.8346458,-167.39624,25.823311)"><tspan
         x="166.76315"
         y="181.53784"
         id="tspan33679"><tspan
           style="font-weight:500;font-size:24.3417px;font-family:'Clear Sans';-inkscape-font-specification:'Clear Sans Medium';fill:#e60c2b"
           id="tspan33675">L</tspan><tspan
           style="font-weight:500;font-size:17.9917px;font-family:'Clear Sans';-inkscape-font-specification:'Clear Sans Medium';fill:#e60c2b"
           id="tspan33677">ONDON</tspan></tspan></text><text
       xml:space="preserve"
       style="font-style:normal;font-weight:normal;font-size:14.1732px;line-height:1.25;font-family:sans-serif;text-align:center;text-anchor:middle;white-space:pre;inline-size:129.413;fill:#000000;fill-opacity:1;stroke:none;stroke-width:0.75"
       x="174.12038"
       y="571.51501"
       id="text486"
       transform="translate(131.87825,-13.798475)"><tspan
         x="174.12038"
         y="571.51501"
         id="tspan33683"><tspan
           style="font-weight:200;font-family:'Clear Sans';-inkscape-font-specification:'Clear Sans Ultra-Light';fill:#e60c2b"
           id="tspan33681">London Marathon</tspan></tspan></text><path
       style="fill:#e60c2b;fill-opacity:1;stroke-width:0.411869"
       d="m 547.59563,506.41361 c -3.98195,-1.07408 -8.93022,-2.91155 -15.99162,-5.9382 l -10.22546,-4.38283 -2.78806,0.63412 c -2.28946,0.52073 -3.92257,0.56888 -9.13236,0.26928 l -6.3443,-0.36488 -8.94864,3.68892 c -4.92174,2.02893 -9.18523,3.59815 -9.47445,3.48715 -0.28918,-0.11103 -4.50996,-2.98019 -9.37953,-6.37602 -4.86953,-3.39585 -10.02401,-6.76403 -11.45439,-7.48483 l -2.60071,-1.31057 -2.77105,2.05428 -2.77106,2.05423 -6.39214,-1.72602 -6.39217,-1.72605 -11.33313,-6.47384 -11.33318,-6.47378 -10.1644,0.64098 -10.16436,0.64104 -5.86608,-4.58694 c -4.34082,-3.39433 -6.08021,-4.52779 -6.68977,-4.35942 -2.82686,0.78086 -7.13279,0.63395 -16.84419,-0.57477 -5.63989,-0.70199 -10.29153,-1.22634 -10.33704,-1.16526 -0.0457,0.0611 -0.52071,1.00381 -1.05588,2.09497 -1.17892,2.40346 -3.88788,4.98378 -6.49343,6.18515 -2.80445,1.29303 -8.56192,1.25922 -11.24888,-0.0662 -3.06405,-1.5113 -5.14362,-3.56905 -6.60329,-6.534 -2.4569,-4.99074 -1.66628,-10.87563 2.01054,-14.96518 6.76087,-7.51969 18.59576,-5.6925 22.79795,3.51976 l 1.13104,2.47948 10.85035,1.30497 c 10.29174,1.23779 11.00946,1.27453 13.93942,0.71298 1.69896,-0.32561 3.51813,-0.59226 4.04259,-0.5925 0.58784,-3e-4 3.18025,1.73743 6.75808,4.53005 6.69334,5.2244 4.73151,4.78023 17.41232,3.94208 l 8.23738,-0.54445 11.93886,6.80379 c 10.63939,6.06324 12.39366,6.9268 16.11748,7.93415 l 4.17867,1.13037 3.14497,-2.45231 3.14496,-2.45227 5.19964,2.75842 c 2.85981,1.51712 8.37028,4.98641 12.24547,7.70951 3.87521,2.72316 7.33961,5.02912 7.69864,5.12443 0.35907,0.0953 4.05747,-1.24713 8.21875,-2.98316 l 7.56591,-3.15641 6.91692,0.29569 c 5.80326,0.24803 7.46767,0.18007 10.33749,-0.42216 l 3.42053,-0.71786 11.09833,4.75231 c 11.21473,4.80215 14.79493,6.0553 15.38703,5.38598 0.17731,-0.20052 1.29356,-4.25672 2.48048,-9.0138 1.8509,-7.41816 2.3285,-8.82758 3.35554,-9.90226 l 1.19746,-1.25308 -2.778,-1.48882 c -1.52792,-0.81883 -5.86118,-2.43356 -9.62954,-3.58823 -3.76834,-1.15472 -10.44061,-3.6478 -14.82727,-5.54021 l -7.97575,-3.4407 -2.55423,-3.60794 c -1.40485,-1.98435 -2.62663,-3.68021 -2.71506,-3.76863 -0.30202,-0.30207 -22.30089,-3.37001 -41.06592,-5.727 l -18.74001,-2.35386 -5.98174,-3.40296 -5.98174,-3.40293 -5.31244,-0.68502 -5.3124,-0.68506 -3.12127,-2.8057 -3.12121,-2.80565 -6.79583,-1.98247 -6.79583,-1.9825 -7.64248,-6.26196 -7.64248,-6.26196 -28.60195,-4.02569 c -15.73108,-2.21412 -28.67925,-4.09015 -28.77367,-4.16894 -0.0944,-0.0788 0.22759,-2.94482 0.71566,-6.36889 0.48803,-3.42407 0.80173,-6.36407 0.69712,-6.5333 -0.2876,-0.46538 -3.90245,-1.39752 -4.21345,-1.08651 -0.14947,0.1493 -1.23857,1.982 -2.42038,4.07251 -1.28252,2.26862 -2.37209,3.7499 -2.70265,3.67424 -0.30461,-0.0697 -8.49952,-4.4252 -18.2109,-9.67891 l -17.65708,-9.55217 -7.54972,-15.23914 -7.54972,-15.23914 -2.30897,-14.41539 c -1.4135,-8.82475 -4.03084,-22.48195 -6.74881,-35.21476 l -4.43984,-20.79938 6.00787,-0.20594 c 3.30434,-0.11326 6.2146,-0.34046 6.46725,-0.50486 0.33567,-0.21843 0.31182,-1.21666 -0.0885,-3.70682 l -0.54791,-3.40788 3.15306,-4.7687 3.15306,-4.76869 6.28494,-2.7849 c 3.4567,-1.53168 6.45143,-2.68203 6.65489,-2.55626 0.20351,0.12579 1.72031,3.22505 3.37066,6.88735 l 3.00062,6.65868 -1.25677,2.82854 -1.25678,2.8286 1.09866,-0.0223 c 5.31789,-0.10743 7.37418,-0.66531 11.96495,-3.24561 l 4.55585,-2.56071 5.57171,-9.81723 5.57172,-9.81721 v -2.96731 c 0,-2.74766 -0.10777,-3.11402 -1.45456,-4.94884 -1.35599,-1.84723 -1.65122,-2.02624 -4.35728,-2.64169 -5.73551,-1.30451 -4.88109,-1.41197 -30.70497,3.86152 -13.40167,2.73679 -24.60276,4.97594 -24.89128,4.97594 -0.28854,0 -7.91187,-3.38247 -16.94073,-7.5166 -16.40467,-7.51136 -16.41929,-7.51919 -20.98898,-11.22341 l -4.57285,-3.70682 -6.94187,-19.28909 c -3.81803,-10.60898 -6.93143,-19.50534 -6.91862,-19.76969 0.0203,-0.41873 30.96185,-22.89045 31.99008,-23.23321 0.21459,-0.0716 1.28997,2.09929 2.38973,4.82406 l 1.99956,4.95407 4.14257,1.59567 c 2.27837,0.8776 6.36661,2.0128 9.08494,2.52269 2.71834,0.5099 5.40578,1.21467 5.9721,1.5662 0.56632,0.35158 3.71711,2.7022 7.00176,5.22366 l 5.9721,4.58446 4.94242,1.38116 c 2.71833,0.75964 5.3131,1.56567 5.76616,1.79114 0.45305,0.22549 3.96729,2.83686 7.80944,5.80305 8.25592,6.37367 17.10742,11.5397 27.54067,16.07355 6.74216,2.92986 7.03854,3.11113 10.8697,6.64805 2.16619,1.99978 7.37303,7.35198 11.57071,11.89374 7.18134,7.77002 8.03123,8.54095 14.38896,13.05249 3.71625,2.63711 6.78,4.93575 6.80835,5.10815 0.0285,0.17236 -1.97834,3.04993 -4.4593,6.39463 -3.73437,5.03444 -4.79485,6.19644 -6.16073,6.75061 l -1.64987,0.66941 0.14964,6.13969 0.14982,6.13964 -11.2742,17.83415 -11.27421,17.83411 0.12974,2.88308 0.12974,2.88308 -3.10941,3.58099 -3.10935,3.58104 v 6.29303 6.293 l 4.00443,10.44228 c 3.79043,9.88426 4.09188,10.50659 5.64136,11.64613 0.90031,0.66208 1.73944,1.19984 1.8647,1.19499 0.12528,-0.005 1.60109,-3.63939 3.27959,-8.07683 l 3.05181,-8.06806 8.39599,-11.04106 c 4.61779,-6.07261 10.30882,-13.04879 12.64672,-15.50263 l 4.25072,-4.46157 -7.81936,-8.12949 -7.81932,-8.12955 -0.18728,-4.43244 -0.18728,-4.4325 3.32555,-5.32994 3.32559,-5.32995 v -5.11335 -5.11335 l 3.54748,-3.86465 c 1.95112,-2.12556 3.70091,-3.76983 3.88845,-3.65392 0.1875,0.11601 5.07808,6.30456 10.86787,13.75253 l 10.527,13.54182 v 2.31064 c 0,1.91548 0.22891,2.65815 1.33857,4.34262 2.0161,3.06051 2.64411,3.18613 5.24829,1.04992 l 2.17111,-1.78095 3.96135,1.42173 c 2.17874,0.78194 4.75317,1.71856 5.72098,2.08133 0.96782,0.36282 1.8116,0.58655 1.87512,0.49721 0.71673,-1.00825 1.51361,-2.47969 1.51361,-2.79503 0,-0.21799 -3.66048,-1.83017 -8.1344,-3.58263 -4.47392,-1.7525 -8.21048,-3.24762 -8.30348,-3.3225 -0.15101,-0.12167 4.05511,-17.03098 4.32165,-17.37378 0.0599,-0.077 3.93376,1.2667 8.60861,2.98605 4.67486,1.71934 8.58124,3.12608 8.68081,3.12608 0.0997,0 0.18112,-0.63663 0.18112,-1.41472 0,-3.09471 0.18723,-2.97451 -12.53882,-8.04899 l -11.80633,-4.70778 -3.99327,-3.33263 c -3.4494,-2.87875 -4.75432,-3.66196 -9.58094,-5.75068 l -5.58765,-2.41799 -0.72213,-8.47782 c -0.39719,-4.66276 -0.82327,-9.15872 -0.94693,-9.99099 -0.21253,-1.43086 -0.96566,-2.08079 -13.84067,-11.94418 -7.48877,-5.73704 -13.9654,-10.68096 -14.39246,-10.98648 -0.68943,-0.49317 -1.1469,-0.31981 -4.0759,1.54451 -1.81461,1.155 -3.48345,2.1 -3.70853,2.1 -1.23513,0 -16.84872,-7.2853 -23.21506,-10.83211 -6.42832,-3.58135 -8.35269,-4.91206 -14.47932,-10.01227 l -7.06566,-5.88198 -5.96089,-1.61329 -5.96088,-1.61334 -6.897,-5.26841 -6.89698,-5.26837 -7.25976,-1.68713 -7.2598,-1.6871 -3.32699,-6.6906 c -1.82985,-3.6798 -3.44178,-6.80535 -3.58211,-6.94566 -0.14021,-0.14021 -2.48072,0.52969 -5.20099,1.4889 l -4.94589,1.74397 -3.97333,-1.53953 c -3.80199,-1.47317 -4.07218,-1.51971 -6.26502,-1.0793 -1.2604,0.25315 -2.62442,0.46023 -3.03109,0.46023 -1.24414,0 -8.42197,-7.24844 -14.275,-14.4154 -3.05248,-3.73771 -7.98135,-9.62624 -10.95308,-13.08563 l -5.40305,-6.28975 -13.59166,-8.98197 c -7.47541,-4.94009 -17.22961,-11.33689 -21.67599,-14.21513 l -8.08434,-5.233121 -9.83194,-3.293532 -9.83197,-3.293533 -6.49954,1.439661 -6.49956,1.439661 -6.26837,4.931664 c -3.86317,3.03937 -9.03229,7.70713 -13.471655,12.16502 -3.961812,3.97836 -7.315746,7.23337 -7.453196,7.23337 -0.137443,0 -4.0316,-2.6231 -8.653654,-5.82912 l -8.403764,-5.82916 -14.391344,-6.33125 C 51.640156,98.992035 45.094727,96.073626 45.009985,95.988896 44.8374,95.816311 46.956902,80.80226 47.186492,80.571008 c 0.08044,-0.08109 3.709146,-0.248292 8.063652,-0.371557 l 7.917273,-0.224108 1.231988,-1.403159 c 4.470255,-5.091339 12.134664,-3.372869 13.85916,3.107421 1.521004,5.715589 -4.071,11.09615 -9.909416,9.534743 -1.226287,-0.327951 -2.381309,-1.073522 -3.556718,-2.295858 l -1.740672,-1.810188 -4.952192,0.266273 -4.952179,0.266286 -0.06859,1.378241 c -0.03772,0.75803 -0.08405,1.665583 -0.102967,2.016766 -0.02433,0.451382 3.351311,2.124006 11.517492,5.706993 13.96815,6.128669 12.323068,5.265079 19.412254,10.190409 3.212046,2.23164 5.99494,4.0575 6.184206,4.0575 0.189267,0 2.65811,-2.32879 5.486291,-5.17509 2.88078,-2.89922 8.276396,-7.62998 12.269016,-10.757195 l 7.12683,-5.58208 8.20698,-1.829803 8.207,-1.829791 11.35832,3.747064 11.35832,3.747077 17.78967,11.563298 c 27.17968,17.66684 26.38407,17.07808 32.34525,23.9351 2.80376,3.22512 7.74713,9.10733 10.98524,13.07156 3.23806,3.96424 7.02498,8.31974 8.41535,9.67891 l 2.52788,2.47121 2.96919,0.0172 c 2.26614,0.0137 3.71087,0.30163 6.10139,1.22125 l 3.13212,1.20495 6.67891,-2.39337 c 3.67337,-1.31636 6.74039,-2.32927 6.81565,-2.25094 0.0752,0.0784 1.92968,3.75538 4.12102,8.17111 2.19138,4.41576 4.05907,8.10339 4.1504,8.19477 0.0913,0.0915 3.01934,0.85242 6.50663,1.69119 l 6.34048,1.52509 6.98374,5.31337 6.98375,5.31334 5.99248,1.59673 5.99248,1.59673 7.26083,6.09265 c 6.2522,5.24626 8.21616,6.62647 14.13801,9.93559 3.78243,2.11362 9.66034,5.06656 13.062,6.56209 l 6.18485,2.71913 3.82462,-2.45285 c 2.31631,-1.48553 4.07791,-2.35569 4.46688,-2.20642 1.20932,0.46404 35.18281,26.69595 35.18626,27.16833 0,0.25935 0.371,4.36374 0.82028,9.12083 0.44927,4.75708 0.81839,8.76778 0.82027,8.91268 0,0.14484 1.83896,1.04721 4.08236,2.00513 3.19553,1.36448 4.96363,2.47138 8.1639,5.11096 l 4.08495,3.36934 13.15034,5.26787 c 7.23267,2.89734 13.27749,5.39038 13.43289,5.54009 0.27665,0.26648 2.02142,19.9245 1.78962,20.16294 -0.0647,0.0666 -4.63496,-1.5408 -10.15608,-3.57193 -5.5211,-2.03116 -10.18406,-3.5524 -10.3622,-3.38048 -0.17813,0.1719 -0.4299,0.96614 -0.55956,1.76493 l -0.23567,1.45242 9.27092,3.66039 9.27095,3.66043 -4.33268,7.8255 c -2.38295,4.30403 -4.3626,7.86201 -4.39922,7.90661 -0.0367,0.0446 -3.09984,-1.01756 -6.80724,-2.36038 l -6.74073,-2.44139 -2.30276,2.00609 -2.30279,2.00613 -4.01386,-2.01424 c -3.927,-1.97066 -4.06296,-2.08763 -6.28615,-5.40825 -1.89771,-2.83451 -2.27536,-3.70019 -2.29089,-5.25112 -0.0103,-1.0214 -0.24189,-2.33994 -0.51484,-2.93015 -0.27295,-0.59016 -3.4617,-4.87544 -7.08615,-9.52286 l -6.58989,-8.44976 -0.11807,3.87101 -0.11807,3.87105 -3.44293,5.57632 c -4.63743,7.51096 -4.67303,7.23949 1.85703,14.17062 2.66776,2.83159 6.45286,6.72375 8.41138,8.64923 1.95853,1.92549 3.9322,4.01253 4.38596,4.63778 l 0.82501,1.13693 -6.51798,6.70043 c -4.92245,5.06022 -8.48413,9.28923 -14.54946,17.27571 l -8.03144,10.57522 -4.53055,11.96483 c -3.04072,8.03024 -4.69812,11.9013 -5.04009,11.77172 -0.28027,-0.10623 -3.15306,-2.17498 -6.38396,-4.59738 -3.23095,-2.42237 -5.92601,-4.44217 -5.98903,-4.48847 -0.063,-0.0463 -2.1481,-5.38954 -4.63352,-11.87393 l -4.51892,-11.78984 v -8.70728 -8.70731 l 2.88308,-3.39591 2.88308,-3.39591 v -2.73796 -2.73799 l 11.32638,-17.85877 11.32639,-17.85879 v -3.05812 c 0,-2.53952 -0.2445,-3.66445 -1.44154,-6.63311 -0.79285,-1.96623 -1.44154,-3.64986 -1.44154,-3.74138 0,-0.0915 1.83441,-0.94972 4.0765,-1.90711 2.95228,-1.26061 4.3355,-2.09667 5.0156,-3.03152 0.51653,-0.70994 1.37643,-1.87342 1.91097,-2.58542 l 0.9718,-1.29462 -4.26788,-3.03 c -3.44343,-2.44468 -5.7395,-4.62137 -11.8856,-11.26742 -4.18979,-4.53055 -9.21664,-9.73178 -11.1708,-11.55827 -3.32876,-3.11128 -3.91188,-3.47229 -9.23801,-5.71894 -9.60378,-4.05111 -20.75508,-10.53057 -28.70229,-16.67756 -5.24893,-4.05991 -7.41017,-5.48246 -9.03369,-5.94609 -1.17372,-0.33523 -3.61677,-1.02799 -5.42899,-1.5395 -3.00783,-0.84898 -3.83005,-1.34161 -9.43603,-5.65408 -3.37761,-2.59824 -6.62108,-4.95218 -7.2077,-5.23098 -0.58664,-0.27884 -2.92003,-0.82328 -5.1853,-1.20994 -2.80385,-0.47855 -5.98945,-1.44662 -9.97872,-3.03238 l -5.86007,-2.32946 -0.88721,-2.17849 c -0.48796,-1.19816 -1.01104,-2.12487 -1.1624,-2.05934 -1.12787,0.48839 -20.20867,14.57861 -20.20591,14.92108 0,0.24047 2.56833,7.54346 5.70306,16.22894 l 5.69957,15.79171 3.37187,2.68575 c 2.974,2.36882 5.15652,3.50797 18.49423,9.65263 l 15.12229,6.9669 24.61101,-5.01759 24.61097,-5.01756 6.50024,1.37041 6.50029,1.37041 2.98798,4.30395 2.98802,4.30393 -0.28668,5.15973 -0.28666,5.15969 -6.34389,11.19293 -6.34385,11.19291 -6.00639,3.42843 -6.00641,3.42848 -7.6647,0.74953 c -4.21561,0.41223 -7.95406,0.75506 -8.30773,0.76185 -0.48333,0.009 -0.88103,-1.05989 -1.60135,-4.30526 l -0.95838,-4.31765 1.06914,-2.46515 1.06912,-2.46521 -0.85972,-1.96935 c -0.47289,-1.08316 -0.92174,-2.03993 -0.99749,-2.12618 -0.0759,-0.0863 -1.15322,0.25535 -2.39444,0.7591 -1.9306,0.78358 -2.49805,1.28648 -3.92754,3.48046 -1.88931,2.89985 -1.91975,3.16789 -1.01162,8.9018 0.3626,2.28929 0.59428,4.21186 0.51484,4.27232 -0.71012,0.54066 -8.8722,2.71874 -10.18812,2.71874 -0.93197,0 -1.69455,0.11361 -1.69455,0.25253 0,0.13883 1.65762,8.06215 3.68357,17.60738 2.02593,9.54515 4.63178,23.23597 5.7908,30.42402 l 2.10739,13.06916 6.75127,13.7023 6.75128,13.7023 13.82248,7.5166 c 7.60237,4.13413 13.95925,7.51478 14.12633,7.51251 0.16715,-0.003 1.20221,-1.68322 2.30012,-3.73558 1.10669,-2.06871 2.20792,-3.65293 2.47121,-3.55519 0.26126,0.0971 3.76478,1.26435 7.78565,2.59415 8.40445,2.77955 7.69715,1.89104 6.69286,8.40752 -0.33169,2.15202 -0.60637,4.39459 -0.61044,4.98356 l -0.009,1.07077 25.63882,3.58458 c 14.10135,1.97153 26.0095,3.74553 26.46255,3.94225 0.45306,0.1967 4.22177,3.15231 8.37494,6.56802 4.15319,3.41571 7.60618,6.21041 7.67331,6.21041 0.0673,0 3.21682,0.91895 6.99923,2.04208 l 6.87709,2.04213 2.65423,2.4829 c 2.93024,2.74107 2.81245,2.69502 8.53515,3.33771 4.0166,0.45112 4.08809,0.47892 9.90105,3.85294 l 5.85522,3.39857 17.07638,2.15819 c 15.9618,2.01734 41.88892,5.57387 43.93112,6.02622 0.57516,0.12751 1.93158,1.6927 3.70683,4.27758 l 2.79975,4.07664 7.2077,3.12394 c 3.96423,1.71816 10.45116,4.1245 14.41539,5.34738 6.46581,1.99459 7.88363,2.60948 13.77421,5.97353 3.61159,2.06252 6.72743,3.91093 6.92409,4.1076 0.20223,0.20223 -1.34574,1.94843 -3.5623,4.01853 l -3.91987,3.66093 -2.9692,11.63529 c -1.63306,6.3994 -3.07762,11.62104 -3.21015,11.60365 -0.13249,-0.0172 -2.83572,-0.73156 -6.0071,-1.58696 z M 350.30919,468.12082 c 4.18624,-2.38183 4.14546,-8.54759 -0.0729,-11.01966 -5.3251,-3.12073 -11.47636,2.46544 -9.04369,8.2129 1.47593,3.48717 5.65784,4.77467 9.11654,2.80676 z"
       id="path107" /></g><g
     inkscape:groupmode="layer"
     id="layer6"
     inkscape:label="cut"><path
       style="display:inline;fill:none;stroke:#000000;stroke-width:0.797566px;stroke-linecap:butt;stroke-linejoin:miter;stroke-opacity:1"
       d="M 11.33858,19.296422 H 0"
       id="path3255-7-56" /><path
       style="display:inline;fill:none;stroke:#000000;stroke-width:0.797566px;stroke-linecap:butt;stroke-linejoin:miter;stroke-opacity:1"
       d="M 11.3386,797.87914 H 0"
       id="path3255-7-56-2" /><path
       style="display:inline;fill:none;stroke:#000000;stroke-width:0.797566px;stroke-linecap:butt;stroke-linejoin:miter;stroke-opacity:1"
       d="m 816.37801,19.296422 h -11.3386"
       id="path3255-7-56-7" /><path
       style="display:inline;fill:none;stroke:#000000;stroke-width:0.797566px;stroke-linecap:butt;stroke-linejoin:miter;stroke-opacity:1"
       d="M 816.37799,797.87914 H 805.03941"
       id="path3255-7-56-0" /><path
       style="display:inline;fill:none;stroke:#000000;stroke-width:0.797566px;stroke-linecap:butt;stroke-linejoin:miter;stroke-opacity:1"
       d="M 19.296422,11.33858 V 0"
       id="path3255-7-56-9" /><path
       style="display:inline;fill:none;stroke:#000000;stroke-width:0.797566px;stroke-linecap:butt;stroke-linejoin:miter;stroke-opacity:1"
       d="M 797.87914,11.33858 V 0"
       id="path3255-7-56-9-6" /><path
       style="display:inline;fill:none;stroke:#000000;stroke-width:0.797566px;stroke-linecap:butt;stroke-linejoin:miter;stroke-opacity:1"
       d="M 19.296422,816.37799 V 805.03941"
       id="path3255-7-56-9-0" /><path
       style="display:inline;fill:none;stroke:#000000;stroke-width:0.797566px;stroke-linecap:butt;stroke-linejoin:miter;stroke-opacity:1"
       d="M 797.87914,816.37799 V 805.03941"
       id="path3255-7-56-9-62" /></g></svg>
