<?xml version="1.0" encoding="UTF-8" standalone="no"?>
<svg
   xmlns:dc="http://purl.org/dc/elements/1.1/"
   xmlns:cc="http://creativecommons.org/ns#"
   xmlns:rdf="http://www.w3.org/1999/02/22-rdf-syntax-ns#"
   xmlns:svg="http://www.w3.org/2000/svg"
   xmlns="http://www.w3.org/2000/svg"
   xmlns:sodipodi="http://sodipodi.sourceforge.net/DTD/sodipodi-0.dtd"
   xmlns:inkscape="http://www.inkscape.org/namespaces/inkscape"
   version="1.1"
   id="svg320"
   xml:space="preserve"
   width="216mm"
   height="216mm"
   viewBox="0 0 816.37797 816.37797"
   sodipodi:docname="nyc.svg"
   inkscape:version="1.0.2 (e86c870879, 2021-01-15, custom)"
   inkscape:export-filename="/home/schaechinger/Bilder/wmm/bright-colors/png/3mm/nyc.png"
   inkscape:export-xdpi="300"
   inkscape:export-ydpi="300"><metadata
     id="metadata326"><rdf:RDF><cc:Work
         rdf:about=""><dc:format>image/svg+xml</dc:format><dc:type
           rdf:resource="http://purl.org/dc/dcmitype/StillImage" /><dc:title /></cc:Work></rdf:RDF></metadata><defs
     id="defs324"><clipPath
       clipPathUnits="userSpaceOnUse"
       id="clipPath338"><path
         d="M 0,0 H 612 V 612 H 0 Z"
         id="path336" /></clipPath><clipPath
       clipPathUnits="userSpaceOnUse"
       id="clipPath348"><path
         d="M 0,0 H 613 V 613 H 0 Z"
         id="path346" /></clipPath></defs><sodipodi:namedview
     pagecolor="#ffffff"
     bordercolor="#666666"
     borderopacity="1"
     objecttolerance="10"
     gridtolerance="10"
     guidetolerance="10"
     inkscape:pageopacity="0"
     inkscape:pageshadow="2"
     inkscape:window-width="2560"
     inkscape:window-height="1384"
     id="namedview322"
     showgrid="false"
     units="mm"
     inkscape:zoom="0.94269654"
     inkscape:cx="251.93593"
     inkscape:cy="598.79133"
     inkscape:window-x="0"
     inkscape:window-y="0"
     inkscape:window-maximized="1"
     inkscape:current-layer="layer7"
     inkscape:document-units="mm"
     inkscape:pagecheckerboard="false"
     inkscape:document-rotation="0" /><g
     inkscape:groupmode="layer"
     id="layer1"
     inkscape:label="bg"
     style="display:inline"><rect
       style="fill:#86cd82;fill-opacity:1;stroke-width:2.1864"
       id="rect1439"
       width="816.37799"
       height="816.37799"
       x="0"
       y="2.8421709e-14" /></g><g
     id="g328"
     inkscape:groupmode="layer"
     inkscape:label="city"
     transform="matrix(1.3333333,0,0,1.3333333,0,2.0408e-5)"
     style="display:inline"><g
       id="g330" /><text
       xml:space="preserve"
       style="font-style:normal;font-weight:normal;font-size:25px;line-height:1.25;font-family:sans-serif;text-align:center;text-anchor:middle;white-space:pre;inline-size:168.885;fill:#000000;fill-opacity:1;stroke:none;stroke-width:0.264583"
       x="166.76315"
       y="181.53784"
       id="text282"
       transform="matrix(2.8346458,0,0,2.8346458,-169.30572,26.099581)"><tspan
         x="166.76315"
         y="181.53784"><tspan
           style="font-style:normal;font-variant:normal;font-weight:500;font-stretch:normal;font-size:24.3417px;font-family:'Clear Sans';-inkscape-font-specification:'Clear Sans Medium';text-align:center;text-anchor:middle;fill:#52b74d;fill-opacity:1">N</tspan><tspan
           style="font-style:normal;font-variant:normal;font-weight:500;font-stretch:normal;font-size:17.9917px;font-family:'Clear Sans';-inkscape-font-specification:'Clear Sans Medium';text-align:center;text-anchor:middle;fill:#52b74d;fill-opacity:1">EW</tspan><tspan
           style="font-style:normal;font-variant:normal;font-weight:200;font-stretch:normal;font-family:'Clear Sans';-inkscape-font-specification:'Clear Sans Ultra-Light';fill:#52b74d;fill-opacity:1"> </tspan><tspan
           style="font-size:24.3417px;fill:#52b74d;fill-opacity:1">Y</tspan><tspan
           style="font-style:normal;font-variant:normal;font-weight:500;font-stretch:normal;font-size:17.9917px;font-family:'Clear Sans';-inkscape-font-specification:'Clear Sans Medium';text-align:center;text-anchor:middle;fill:#52b74d;fill-opacity:1">ORK</tspan></tspan></text><text
       xml:space="preserve"
       style="font-style:normal;font-weight:normal;font-size:14.1732px;line-height:1.25;font-family:sans-serif;text-align:center;text-anchor:middle;white-space:pre;inline-size:196.8;fill:#000000;fill-opacity:1;stroke:none;stroke-width:0.75"
       x="174.12038"
       y="571.51501"
       id="text486"
       transform="translate(131.95042,-13.798475)"><tspan
         x="174.12038"
         y="571.51501"><tspan
           style="font-style:normal;font-variant:normal;font-weight:200;font-stretch:normal;font-size:14.1732px;font-family:'Clear Sans';-inkscape-font-specification:'Clear Sans Ultra-Light';text-align:center;text-anchor:middle;fill:#52b74d;fill-opacity:1;stroke-width:0.75">New York City Marathon</tspan></tspan></text><text
       xml:space="preserve"
       style="font-style:normal;font-weight:normal;font-size:14.1732px;line-height:1.25;font-family:sans-serif;fill:#000000;fill-opacity:1;stroke:none;stroke-width:0.75"
       x="404.58902"
       y="47.352722"
       id="text490"><tspan
         sodipodi:role="line"
         x="404.58902"
         y="47.352722"
         style="font-style:normal;font-variant:normal;font-weight:500;font-stretch:normal;font-size:14.1732px;font-family:'Clear Sans';-inkscape-font-specification:'Clear Sans Medium';fill:#52b74d;fill-opacity:1;stroke-width:0.75"
         id="tspan492">03.11.2019</tspan></text><text
       xml:space="preserve"
       style="font-style:normal;font-weight:normal;font-size:14.1732px;line-height:1.25;font-family:sans-serif;fill:#000000;fill-opacity:1;stroke:none;stroke-width:0.75"
       x="576.05652"
       y="47.352722"
       id="text490-6"><tspan
         sodipodi:role="line"
         x="576.05652"
         y="47.352722"
         style="font-style:normal;font-variant:normal;font-weight:500;font-stretch:normal;font-size:14.1732px;font-family:'Clear Sans';-inkscape-font-specification:'Clear Sans Medium';text-align:end;text-anchor:end;fill:#52b74d;fill-opacity:1;stroke-width:0.75"
         id="tspan524">03:46:56</tspan></text><path
       style="fill:#52b74d;fill-opacity:1;stroke-width:0.28272"
       d="m 152.01519,492.48161 c -3.18568,-0.65408 -5.88837,-2.8231 -7.31819,-5.87322 -0.63008,-1.34408 -0.75194,-1.99444 -0.75084,-4.00758 8.8e-4,-2.03724 0.12268,-2.66617 0.79837,-4.13067 0.99962,-2.16652 2.93303,-4.08829 5.13746,-5.10648 2.24038,-1.03481 5.382,-1.08101 7.85872,-0.11559 2.14436,0.8359 4.36532,3.00302 5.29927,5.17078 0.68176,1.58242 0.71462,1.61129 1.68484,1.47958 0.54424,-0.0738 10.21329,-0.96386 21.48678,-1.9778 l 20.49725,-1.84348 3.39021,-3.38117 3.39024,-3.38113 -4.37752,-4.38436 -4.37751,-4.38434 9.74115,-19.48885 9.74115,-19.48886 30.40295,-21.06117 30.40297,-21.06118 15.33759,-15.35775 15.33762,-15.35779 v -5.44141 -5.4414 h 18.51821 c 10.18501,0 18.52956,-0.0318 18.54347,-0.0706 0.014,-0.0389 0.43361,-3.57938 0.93267,-7.8678 l 0.9074,-7.79713 -4.28547,-7.70558 -4.28548,-7.70557 2.99942,-6.70432 2.99939,-6.70433 11.49801,-8.02085 11.49807,-8.02088 -0.52033,-1.29548 c -0.28617,-0.71249 -1.4771,-3.61731 -2.64652,-6.45511 l -2.12621,-5.15966 h 5.16597 5.16596 l -0.12137,-5.30101 -0.12135,-5.30102 -2.68013,-2.71315 -2.68015,-2.71314 5.53523,-5.16943 c 3.04437,-2.84318 5.53072,-5.24814 5.52524,-5.34439 -0.006,-0.0962 -1.38827,-1.19277 -3.07284,-2.43674 l -3.06281,-2.26177 4.66285,-4.87692 c 2.56455,-2.68232 4.78445,-4.87694 4.93305,-4.87694 0.14862,0 2.73622,1.71971 5.75026,3.82159 3.01402,2.1019 5.64449,3.8847 5.84546,3.96183 0.20422,0.0783 1.60923,-1.10824 3.18449,-2.68944 2.78666,-2.79715 2.81265,-2.83571 2.26018,-3.35804 -0.30737,-0.29057 -7.30173,-6.28797 -15.54305,-13.32749 -8.2413,-7.03951 -15.21467,-13.01586 -15.49635,-13.28077 -0.48896,-0.45988 1.18611,-2.35512 37.00998,-41.87501 20.6372,-22.76633 37.68026,-41.48791 37.87349,-41.60349 0.19324,-0.11559 2.51258,-1.08773 5.15406,-2.1603 3.94595,-1.60224 4.98358,-2.14477 5.81662,-3.04114 0.55763,-0.60004 1.01734,-1.18779 1.02152,-1.30613 0.005,-0.11831 -0.61884,-1.2148 -1.38458,-2.43663 l -1.39224,-2.22151 1.40924,-1.23873 1.40925,-1.23873 -2.56402,-4.09946 c -1.41021,-2.254697 -2.72192,-4.133259 -2.91487,-4.174573 -0.19299,-0.04129 -1.21503,0.165718 -2.27119,0.460099 l -1.92029,0.53525 -0.55926,-1.096221 c -0.30759,-0.602935 -0.65132,-1.096244 -0.76387,-1.096244 -0.11251,0 -4.11651,3.910359 -8.89768,8.689689 l -8.69306,8.68968 -2.34362,-2.33144 -2.34361,-2.33144 -1.20771,1.23055 -1.20768,1.23054 2.14593,2.62831 c 1.18027,1.44556 2.10941,2.73348 2.06476,2.86202 -0.0447,0.12856 -7.32892,8.38918 -16.18721,18.35696 l -16.10599,18.12325 -4.18891,2.96189 c -2.30387,1.62903 -4.35941,3.02733 -4.56786,3.10733 -0.20845,0.08 -1.1305,-0.15992 -2.04896,-0.53313 l -1.66999,-0.67856 -1.40466,1.09183 c -0.77259,0.6005 -1.92453,1.32726 -2.5599,1.61502 -1.0855,0.49161 -1.17738,0.62774 -1.52287,2.25574 -0.25498,1.20144 -0.30686,2.64035 -0.16933,4.69389 l 0.1984,2.96132 -1.50273,-0.6611 c -0.82647,-0.36359 -1.78894,-0.7505 -2.13881,-0.8598 l -0.63612,-0.1987 v 3.5136 3.51361 l -3.49084,1.46327 c -1.91996,0.80479 -4.14897,1.56732 -4.95341,1.69448 -0.80444,0.12716 -1.5133,0.2819 -1.57526,0.34386 -0.062,0.062 0.12169,1.25737 0.40809,2.65647 0.61039,2.98166 0.98068,2.29013 -3.41547,6.3787 l -2.99028,2.78109 -8.24787,-5.50053 -8.24784,-5.50054 v -3.61454 -3.61456 l 5.58374,-4.37989 c 4.71041,-3.69485 5.56922,-4.48195 5.49097,-5.03245 -0.16606,-1.1682 0.53297,-3.31951 1.43365,-4.41224 2.30674,-2.79847 6.74676,-2.82661 9.17745,-0.0582 3.52971,4.02012 0.24314,10.314 -5.06864,9.70665 -0.82041,-0.0937 -1.77309,-0.20525 -2.1171,-0.24766 -0.43672,-0.0538 -1.99378,0.98667 -5.15965,3.44792 -4.34568,3.37851 -4.53387,3.56655 -4.52764,4.52353 0.006,0.98173 0.098,1.0591 5.4497,4.60319 2.99374,1.98258 5.57393,3.60469 5.73377,3.60469 0.15986,0 0.68444,-0.41348 1.16577,-0.91885 l 0.87517,-0.91883 -0.72327,-3.74824 c -0.39778,-2.06154 -0.65195,-3.81955 -0.56481,-3.90667 0.0872,-0.0872 1.81571,-0.40176 3.84135,-0.69919 2.27967,-0.33474 4.28317,-0.80623 5.25821,-1.23744 l 1.57524,-0.69665 v -5.65394 -5.65393 l 2.02377,0.83453 c 1.11306,0.459 2.064,0.79428 2.11317,0.74509 0.0492,-0.0492 0.38755,-1.22708 0.75192,-2.61756 l 0.66251,-2.52815 1.94267,-0.93712 c 1.06849,-0.51544 2.98869,-1.75389 4.26708,-2.75214 l 2.32439,-1.81502 1.63215,0.72182 c 0.89766,0.397 1.83294,0.6693 2.07836,0.60512 0.2454,-0.0641 1.68494,-0.99528 3.19893,-2.06911 2.55311,-1.81086 3.78298,-3.10981 16.95988,-17.91247 7.81392,-8.77801 14.43847,-16.25172 14.72119,-16.60828 0.51233,-0.6461 0.50638,-0.65765 -1.81358,-3.49497 l -2.32763,-2.84673 4.19085,-4.01082 c 2.30498,-2.20595 4.43788,-4.18598 4.73981,-4.4001 0.50337,-0.35694 0.73463,-0.20469 2.78492,1.83358 l 2.23598,2.22286 9.53928,-9.536025 9.53928,-9.536026 0.94499,2.100454 c 1.4451,3.212008 1.25915,3.084977 3.57447,2.44184 1.08623,-0.301728 1.98824,-0.52556 2.00443,-0.497414 0.0161,0.02816 2.13918,3.451516 4.7177,7.607477 l 4.68828,7.556284 -1.37628,1.2374 -1.37629,1.2374 1.38273,2.23136 1.38274,2.23137 -2.74107,2.82827 -2.74103,2.82825 -4.91852,2.04964 c -2.70519,1.12729 -5.11072,2.2087 -5.34562,2.40312 -0.23492,0.19442 -15.76644,17.27433 -34.51444,37.95535 -18.74804,20.68102 -34.63145,38.18806 -35.29653,38.90456 l -1.2092,1.30266 15.47215,13.25746 c 8.50967,7.29155 15.79371,13.53728 16.18681,13.87932 l 0.71466,0.62189 -6.21986,6.23694 c -3.42092,3.43035 -6.37542,6.17736 -6.56562,6.10454 -0.19016,-0.0728 -2.72753,-1.80511 -5.63857,-3.84953 -2.91108,-2.04441 -5.46738,-3.78407 -5.6807,-3.86592 -0.38387,-0.1473 -2.14601,1.34194 -2.62344,2.21716 -0.1972,0.36151 0.38119,0.92848 2.85041,2.7942 1.7038,1.28738 3.09782,2.43161 3.09782,2.54274 0,0.11109 -2.13102,2.18273 -4.73558,4.60354 -2.60457,2.42082 -5.17526,4.85872 -5.71264,5.41752 l -0.97706,1.01604 1.4526,1.48147 1.45262,1.48141 0.16689,6.64396 c 0.0918,3.65416 0.2364,7.62992 0.32137,8.83502 l 0.15445,2.19108 h -3.97751 c -2.5258,0 -3.9775,0.10565 -3.9775,0.28956 0,0.15927 0.85157,2.38225 1.89238,4.94004 1.0408,2.55775 1.83595,4.70065 1.767,4.76203 -0.0688,0.0614 -5.72032,4.01143 -12.55857,8.77796 l -12.43321,8.66639 -2.20967,4.92999 -2.20973,4.93004 4.06256,7.33131 4.06255,7.3313 -0.92488,8.15922 c -0.50871,4.48757 -1.07349,9.39965 -1.25507,10.91574 l -0.33015,2.75652 h -18.20368 -18.20367 v 3.74694 3.74691 l -17.03394,16.99538 -17.03392,16.99538 -29.35162,20.29177 -29.35159,20.29177 -8.62652,17.25122 -8.62654,17.25122 4.89787,4.90388 4.89786,4.90387 -5.79383,5.76838 -5.79383,5.76839 -22.33495,2.01223 c -12.28421,1.1067 -22.41835,2.00913 -22.52031,2.00533 -0.10199,-0.004 -0.5665,0.80753 -1.03229,1.80292 -0.46579,0.99535 -1.38092,2.34378 -2.03362,2.99647 -2.23989,2.23992 -6.04877,3.42578 -9.03426,2.81279 z m 4.13863,-5.3413 c 1.45579,-0.66096 2.65008,-2.37075 2.84137,-4.06786 0.30156,-2.67545 -1.77203,-5.23957 -4.44489,-5.49642 -1.83808,-0.17662 -2.61957,0.0504 -3.82942,1.11274 -1.36118,1.19514 -1.82842,2.19481 -1.82842,3.91204 0,1.62268 0.42643,2.61649 1.6004,3.72984 1.52643,1.4476 3.60202,1.74446 5.66096,0.80966 z"
       id="path14" /></g><g
     inkscape:groupmode="layer"
     id="layer7"
     inkscape:label="cut"><path
       style="display:inline;fill:none;stroke:#000000;stroke-width:0.797566px;stroke-linecap:butt;stroke-linejoin:miter;stroke-opacity:1"
       d="M 11.33858,19.29642 H 0"
       id="path3255-7-56" /><path
       style="display:inline;fill:none;stroke:#000000;stroke-width:0.797566px;stroke-linecap:butt;stroke-linejoin:miter;stroke-opacity:1"
       d="M 11.3386,797.87914 H 0"
       id="path3255-7-56-2" /><path
       style="display:inline;fill:none;stroke:#000000;stroke-width:0.797566px;stroke-linecap:butt;stroke-linejoin:miter;stroke-opacity:1"
       d="m 816.37801,19.29642 h -11.3386"
       id="path3255-7-56-7" /><path
       style="display:inline;fill:none;stroke:#000000;stroke-width:0.797566px;stroke-linecap:butt;stroke-linejoin:miter;stroke-opacity:1"
       d="M 816.37799,797.87914 H 805.03941"
       id="path3255-7-56-0" /><path
       style="display:inline;fill:none;stroke:#000000;stroke-width:0.797566px;stroke-linecap:butt;stroke-linejoin:miter;stroke-opacity:1"
       d="M 19.29642,11.33858 V 0"
       id="path3255-7-56-9" /><path
       style="display:inline;fill:none;stroke:#000000;stroke-width:0.797566px;stroke-linecap:butt;stroke-linejoin:miter;stroke-opacity:1"
       d="M 797.87914,11.33858 V 0"
       id="path3255-7-56-9-6" /><path
       style="display:inline;fill:none;stroke:#000000;stroke-width:0.797566px;stroke-linecap:butt;stroke-linejoin:miter;stroke-opacity:1"
       d="M 19.29642,816.37794 V 805.03941"
       id="path3255-7-56-9-0" /><path
       style="display:inline;fill:none;stroke:#000000;stroke-width:0.797566px;stroke-linecap:butt;stroke-linejoin:miter;stroke-opacity:1"
       d="M 797.87914,816.37794 V 805.03941"
       id="path3255-7-56-9-62" /></g></svg>
