<?xml version="1.0" encoding="UTF-8" standalone="no"?>
<svg
   xmlns:dc="http://purl.org/dc/elements/1.1/"
   xmlns:cc="http://creativecommons.org/ns#"
   xmlns:rdf="http://www.w3.org/1999/02/22-rdf-syntax-ns#"
   xmlns:svg="http://www.w3.org/2000/svg"
   xmlns="http://www.w3.org/2000/svg"
   xmlns:sodipodi="http://sodipodi.sourceforge.net/DTD/sodipodi-0.dtd"
   xmlns:inkscape="http://www.inkscape.org/namespaces/inkscape"
   version="1.1"
   id="svg320"
   xml:space="preserve"
   width="216mm"
   height="216mm"
   viewBox="0 0 816.37797 816.37797"
   sodipodi:docname="tokyo.svg"
   inkscape:version="1.0.2 (e86c870879, 2021-01-15, custom)"
   inkscape:export-xdpi="300"
   inkscape:export-ydpi="300"><metadata
     id="metadata326"><rdf:RDF><cc:Work
         rdf:about=""><dc:format>image/svg+xml</dc:format><dc:type
           rdf:resource="http://purl.org/dc/dcmitype/StillImage" /><dc:title /></cc:Work></rdf:RDF></metadata><defs
     id="defs324"><clipPath
       clipPathUnits="userSpaceOnUse"
       id="clipPath338"><path
         d="M 0,0 H 612 V 612 H 0 Z"
         id="path336" /></clipPath><clipPath
       clipPathUnits="userSpaceOnUse"
       id="clipPath348"><path
         d="M 0,0 H 613 V 613 H 0 Z"
         id="path346" /></clipPath></defs><sodipodi:namedview
     pagecolor="#ffffff"
     bordercolor="#666666"
     borderopacity="1"
     objecttolerance="10"
     gridtolerance="10"
     guidetolerance="10"
     inkscape:pageopacity="0"
     inkscape:pageshadow="2"
     inkscape:window-width="2560"
     inkscape:window-height="1384"
     id="namedview322"
     showgrid="false"
     units="mm"
     inkscape:zoom="1.3453754"
     inkscape:cx="239.33103"
     inkscape:cy="599.3365"
     inkscape:window-x="0"
     inkscape:window-y="0"
     inkscape:window-maximized="1"
     inkscape:current-layer="layer8"
     inkscape:document-units="mm"
     inkscape:pagecheckerboard="false"
     inkscape:document-rotation="0" /><g
     inkscape:groupmode="layer"
     id="layer1"
     inkscape:label="bg"><rect
       style="fill:#e1f51d;fill-opacity:1;stroke-width:2.1864"
       id="rect1439"
       width="816.37799"
       height="816.37799"
       x="0"
       y="2.8421709e-14" /></g><g
     id="g328"
     inkscape:groupmode="layer"
     inkscape:label="city"
     transform="matrix(1.3333333,0,0,1.3333333,0,2.0408e-5)"><g
       id="g330" /><text
       xml:space="preserve"
       style="font-style:normal;font-weight:normal;font-size:25px;line-height:1.25;font-family:sans-serif;white-space:pre;inline-size:71.035;fill:#000000;fill-opacity:1;stroke:none;stroke-width:0.264583"
       x="133.91087"
       y="181.53784"
       id="text282"
       transform="matrix(2.8346458,0,0,2.8346458,-173.57606,25.823311)"><tspan
         x="133.91087"
         y="181.53784"><tspan
           style="font-style:normal;font-variant:normal;font-weight:500;font-stretch:normal;font-size:24.3417px;font-family:'Clear Sans';-inkscape-font-specification:'Clear Sans Medium';text-align:center;text-anchor:middle;fill:#bcce09;fill-opacity:1">T</tspan><tspan
           style="font-style:normal;font-variant:normal;font-weight:500;font-stretch:normal;font-size:17.9917px;font-family:'Clear Sans';-inkscape-font-specification:'Clear Sans Medium';text-align:center;text-anchor:middle;fill:#bcce09;fill-opacity:1">OKIO</tspan></tspan></text><text
       xml:space="preserve"
       style="font-style:normal;font-weight:normal;font-size:14.1732px;line-height:1.25;font-family:sans-serif;text-align:center;text-anchor:middle;white-space:pre;inline-size:129.413;fill:#000000;fill-opacity:1;stroke:none;stroke-width:0.75"
       x="174.12038"
       y="571.51501"
       id="text486"
       transform="translate(132.50336,-12.494541)"><tspan
         x="174.12038"
         y="571.51501"><tspan
           style="font-style:normal;font-variant:normal;font-weight:normal;font-stretch:normal;font-family:'Hiragino Sans GB';-inkscape-font-specification:'Hiragino Sans GB';fill:#bcce09;fill-opacity:1">東京</tspan><tspan
           style="font-style:normal;font-variant:normal;font-weight:normal;font-stretch:normal;font-family:'Hiragino Sans GB';-inkscape-font-specification:'Hiragino Sans GB';fill:#bcce09;fill-opacity:1">マラソン</tspan></tspan></text><path
       style="fill:#bcce09;fill-opacity:1;stroke-width:0.386125"
       d="m 274.36067,486.95475 c -4.88448,-0.80967 -8.9735,-1.48385 -9.08674,-1.49814 -0.11327,-0.0145 0.28628,-6.49837 0.88781,-14.4091 l 1.0937,-14.38316 6.87964,-20.27156 6.87959,-20.27156 7.29145,-10.98757 7.29143,-10.98758 9.46007,-5.34725 c 5.20304,-2.94097 9.65955,-5.46807 9.90334,-5.6158 0.27619,-0.16732 1.69539,-11.23717 3.76464,-29.36403 l 3.32128,-29.09548 5.43886,-16.8534 c 5.23624,-16.22571 5.71954,-17.49905 12.97708,-34.18848 l 7.53829,-17.33513 7.55294,-9.79015 7.55294,-9.7902 h 3.00406 3.0041 l 2.11398,-6.66066 c 5.03906,-15.87657 7.19226,-22.70947 7.19226,-22.82351 0,-0.0671 -0.91888,-0.43439 -2.04196,-0.81611 -1.90448,-0.64737 -2.12414,-0.65158 -3.26292,-0.0627 -1.68727,0.87253 -4.80458,0.80824 -6.65802,-0.1374 -2.47696,-1.26362 -3.63343,-3.13934 -3.78499,-6.13892 -0.15171,-3.00452 0.53321,-4.5753 2.79265,-6.40399 1.32811,-1.07494 1.68126,-1.16808 4.42985,-1.16808 2.6782,0 3.13349,0.11198 4.40817,1.08421 1.55098,1.183 2.95884,3.56787 2.95884,5.01221 0,0.80978 0.54531,1.13192 4.76482,2.81477 l 4.76481,1.90031 -4.76716,15.05887 c -2.62195,8.2824 -5.46642,17.27429 -6.32106,19.98199 l -1.55396,4.92309 h -3.75661 -3.75666 l -6.3423,8.20516 -6.34234,8.20515 -7.11638,16.21725 c -6.82444,15.55177 -7.34307,16.91561 -12.63913,33.23505 l -5.52271,17.01782 -3.32955,29.31718 c -1.83127,16.12448 -3.42522,29.86392 -3.54215,30.53216 -0.19847,1.13424 -0.92204,1.61661 -10.89208,7.26156 l -10.67949,6.04665 -6.5874,9.92099 -6.58742,9.92098 -6.61262,19.69237 -6.61266,19.69238 -0.77385,10.42537 c -0.42557,5.73396 -0.6539,10.54052 -0.50736,10.68122 0.14656,0.14077 1.41398,0.37544 2.81658,0.52162 l 2.55017,0.26577 0.26118,-5.54124 c 0.14367,-3.04768 0.70947,-8.58198 1.25749,-12.29843 0.96937,-6.57405 1.14823,-7.20598 6.60054,-23.31828 l 5.60422,-16.56109 5.78598,-9.69541 c 3.18225,-5.33247 6.16243,-10.04292 6.62262,-10.46766 0.46017,-0.42473 5.81878,-3.54765 11.90805,-6.93979 10.87429,-6.05775 11.07511,-6.19179 11.28034,-7.52943 0.11487,-0.74906 1.5296,-14.82801 3.1437,-31.28659 l 2.93479,-29.9247 4.9993,-15.33619 c 4.95048,-15.18641 5.07755,-15.50878 13.01354,-33.01369 l 8.01427,-17.67749 5.32408,-7.23984 5.32409,-7.23985 h 4.56964 4.56963 l 5.72716,6.1892 5.7272,6.18915 7.61635,-7.83018 7.61635,-7.83023 9.52158,-16.9895 c 5.23689,-9.34424 9.71544,-17.19003 9.95233,-17.43514 0.32272,-0.33388 3.57752,1.28376 12.97809,6.45003 6.90105,3.7926 12.65991,6.77321 12.79749,6.62362 0.13755,-0.14962 1.93862,-4.00778 4.00226,-8.57371 2.06365,-4.56593 4.04767,-8.56232 4.40897,-8.88088 0.3613,-0.31855 7.11628,-4.22807 15.01111,-8.68781 7.89484,-4.45974 14.35651,-8.22835 14.35926,-8.37474 0.003,-0.14641 -3.19747,-6.48845 -7.11157,-14.09357 l -7.11663,-13.82741 2.41995,-15.44499 2.41993,-15.44501 6.08988,-11.19762 c 3.34944,-6.1587 6.5932,-12.08898 7.2083,-13.1784 l 1.11837,-1.98079 10.7132,4.54971 10.71315,4.54973 6.93801,0.44346 c 3.81588,0.24391 6.96235,0.47795 6.99211,0.52007 0.0296,0.0421 1.47329,23.0993 3.20785,51.23816 1.73455,28.13886 3.24226,51.94346 3.35048,52.89912 l 0.19677,1.73756 -7.45696,9.07963 -7.45696,9.0796 -1.24136,7.13765 c -0.68273,3.9257 -1.73412,9.92747 -2.33644,13.33731 l -1.09512,6.19965 9.04614,4.76501 c 7.2522,3.82006 9.11783,4.65805 9.40766,4.22572 0.71301,-1.06366 1.49164,-2.6316 1.49164,-3.00383 0,-0.20854 -3.47513,-2.15747 -7.7225,-4.33094 -4.24738,-2.17349 -7.71666,-4.13998 -7.70957,-4.37003 0.008,-0.23007 1.10289,-5.5485 2.43507,-11.81879 l 2.42211,-11.40053 6.89106,-8.60518 6.89109,-8.6052 -3.5515,-53.74416 c -1.95332,-29.5593 -3.65459,-54.83013 -3.78063,-56.15744 l -0.22916,-2.41328 h -8.00683 -8.00688 l -9.39415,-4.45479 c -5.16679,-2.45012 -9.48112,-4.541728 -9.58739,-4.648009 -0.10634,-0.106345 3.7448,-4.139664 8.5579,-8.963073 l 8.75114,-8.769815 3.62262,-7.537224 c 3.46401,-7.207282 3.8112,-7.760084 7.93112,-12.627721 2.36965,-2.79976 4.3085,-5.171339 4.3085,-5.270155 0,-0.09878 -1.43349,-0.959489 -3.18554,-1.91259 -3.07957,-1.6753 -7.46815,-3.24966 -7.88803,-2.829765 -0.11262,0.11262 -0.38461,3.039125 -0.6044,6.50331 l -0.39956,6.298519 -5.06232,8.929172 -5.06234,8.929174 -8.55653,9.357434 -8.55653,9.357419 -8.32169,14.147904 -8.32165,14.1479 -1.83398,16.2029 -1.83393,16.20288 6.35545,12.49443 c 5.23057,10.28304 6.25307,12.55461 5.77698,12.83432 -0.31817,0.18692 -6.48008,3.70484 -13.69312,7.81762 l -13.11462,7.47773 -3.37964,7.45855 c -1.85876,4.10219 -3.46187,7.54078 -3.56242,7.64132 -0.19071,0.19071 -20.74125,-11.41624 -21.07926,-11.90559 -0.10618,-0.15364 -4.0157,-15.4121 -8.68781,-33.9076 -5.79725,-22.94956 -8.65396,-33.6282 -8.99613,-33.62844 -0.27574,-1.5e-4 -4.1678,1.14389 -8.64897,2.5424 l -8.1476,2.54272 -6.02377,-0.12951 -6.02378,-0.12935 -5.04562,-2.79941 -5.04556,-2.79941 h -12.20477 -12.20475 l -3.5598,-4.3439 c -1.95789,-2.38915 -3.75873,-4.5618 -4.00192,-4.82814 -0.24313,-0.26635 -5.4741,-1.36153 -11.62433,-2.4338 -6.15023,-1.07222 -11.29779,-2.07063 -11.43898,-2.21862 -0.14126,-0.14802 -1.66781,-2.87545 -3.39235,-6.06098 -1.72458,-3.18553 -3.43351,-6.08126 -3.79759,-6.43495 -1.39174,-1.35201 -11.05363,-7.65238 -11.3068,-7.373 -0.14641,0.16146 -8.29406,11.67461 -18.106,25.58477 -9.8119,13.91015 -18.12984,25.57545 -18.48427,25.92285 -0.35443,0.34744 -3.79268,2.04056 -7.64056,3.76257 l -6.9962,3.13084 -11.15167,-0.83202 -11.15173,-0.83202 -4.44043,-2.00635 -4.44044,-2.0063 -8.88088,-0.69205 -8.88087,-0.69205 -8.62014,4.18614 -8.62015,4.18617 -19.37392,-2.1971 -19.37391,-2.19705 -15.05888,-4.65041 -15.05887,-4.65037 -6.75719,-0.23005 -6.757192,-0.23002 -1.136173,2.65921 c -0.624911,1.46256 -1.446569,3.37098 -1.825936,4.24092 l -0.689732,1.58168 -5.480272,-1.21949 c -5.28412,-1.17586 -5.596753,-1.20228 -8.734968,-0.7383 -1.790091,0.26468 -3.350937,0.57745 -3.468544,0.69505 -0.117608,0.11761 0.182251,2.0187 0.666371,4.22468 l 0.88022,4.01082 1.91222,0.22646 c 2.366206,0.28027 5.500414,1.68359 7.311469,3.27373 0.753121,0.66124 1.95693,2.29436 2.675155,3.62916 1.186948,2.20596 1.306743,2.72566 1.315946,5.70892 0.008,2.742 -0.155094,3.63445 -0.99424,5.42337 -1.395536,2.97532 -3.093987,4.7708 -5.785053,6.11553 -4.425459,2.21145 -9.003021,1.9534 -12.995135,-0.73256 -4.162218,-2.80038 -6.475396,-8.05002 -5.558607,-12.61498 0.616192,-3.06823 1.745591,-5.21774 3.811923,-7.25487 l 1.768259,-1.74327 -1.04228,-4.92545 c -0.573267,-2.70902 -1.358629,-6.33531 -1.745269,-8.05847 l -0.702956,-3.13302 7.724044,-1.08559 c 7.723643,-1.08559 7.724239,-1.08559 10.995313,-0.40574 1.799197,0.37396 3.395695,0.53478 3.547748,0.35741 0.152037,-0.17739 0.950141,-1.86222 1.773472,-3.74403 l 1.496975,-3.4215 9.283332,0.2782 9.28335,0.2782 15.445,4.76001 15.445,4.75995 17.18256,1.95639 c 9.45041,1.07601 17.6415,1.95575 18.20243,1.95498 0.56091,0 4.78624,-1.85224 9.38959,-4.11436 l 8.36976,-4.11295 10.46528,0.86881 10.46525,0.86878 4.23764,1.94503 4.23766,1.94502 9.79815,0.76179 9.79811,0.76183 5.68717,-2.57375 5.68714,-2.57372 19.4394,-27.52582 c 10.69167,-15.13922 19.5795,-27.752492 19.75071,-28.029521 0.22949,-0.371307 2.72537,1.118202 9.49607,5.667158 l 9.18475,6.170873 2.97307,5.49145 c 1.63521,3.02029 3.06028,5.57861 3.1668,5.68515 0.10651,0.1065 5.11169,1.05156 11.1225,2.10003 6.01084,1.04849 11.04024,2.03783 11.17646,2.19852 0.13627,0.16072 1.76715,2.16006 3.62433,4.44303 l 3.37667,4.15084 h 11.3871 11.38708 l 5.14737,2.84111 5.1473,2.84111 4.38522,0.27001 4.38519,0.27006 11.77014,-3.6617 c 6.47357,-2.01395 11.80265,-3.62922 11.84237,-3.58945 0.0397,0.0397 4.08834,15.96897 8.99687,35.39831 4.90854,19.4294 9.0056,35.59722 9.10452,35.92856 0.19078,0.63885 12.03282,7.55328 12.36585,7.2203 0.10747,-0.10763 1.20127,-2.43293 2.43046,-5.16751 l 2.23497,-4.97199 11.55356,-6.63451 c 6.35442,-3.64899 11.7134,-6.69957 11.90886,-6.77912 0.19546,-0.0795 -2.05495,-4.87609 -5.00086,-10.65906 l -5.3562,-10.51445 2.0307,-18.02038 2.03076,-18.02037 8.8955,-15.09334 8.89554,-15.093335 8.46932,-9.249028 8.46926,-9.249029 4.51712,-7.915564 4.51708,-7.915562 0.62494,-9.754869 c 0.3437,-5.365192 0.72566,-9.855632 0.84883,-9.978774 0.12308,-0.123077 3.276,0.678052 7.00636,1.780438 6.23556,1.84275 7.35486,2.319888 13.88215,5.917802 l 7.09972,3.913441 -4.08741,4.833239 c -2.24808,2.658277 -5.33914,6.310151 -6.86897,8.115285 -2.38995,2.820064 -3.28058,4.341911 -6.32724,10.811501 l -3.54574,7.529438 -5.83407,5.87465 c -3.20875,3.231046 -5.75547,5.947081 -5.6594,6.035632 0.096,0.08849 2.06816,1.050391 4.38244,2.137445 l 4.20779,1.97646 h 10.544 10.54399 l 0.19773,1.25491 c 0.10876,0.6902 1.96337,28.03391 4.12139,60.7638 l 3.92364,59.50886 -7.00746,8.73734 c -3.85411,4.80552 -7.17279,9.12888 -7.3748,9.60749 -0.55494,1.31456 -3.5268,15.82576 -3.34052,16.31123 0.0893,0.23268 3.91437,2.32695 8.50015,4.65394 4.58581,2.32698 8.34085,4.37405 8.34455,4.54905 0.006,0.28118 -7.21521,13.97526 -8.03303,15.23374 -0.23838,0.36687 -3.86302,-1.38436 -14.15997,-6.84127 -7.61176,-4.03389 -13.98873,-7.48353 -14.17106,-7.66587 -0.18457,-0.18456 0.96481,-7.65727 2.59329,-16.86037 l 2.92479,-16.5289 7.1384,-8.73279 7.13841,-8.73285 -0.22233,-2.50981 c -0.12227,-1.3804 -1.42557,-22.05739 -2.89621,-45.94887 -1.47062,-23.89149 -2.77925,-44.67288 -2.90797,-46.18089 l -0.23412,-2.74184 -4.58187,-0.23041 -4.58188,-0.23035 -8.32651,-3.55901 c -4.57955,-1.95743 -8.40119,-3.48428 -8.49251,-3.39298 -0.41467,0.4147 -11.0299,20.27871 -11.03002,20.6402 -8e-5,0.22406 -0.86855,5.9462 -1.92996,12.7159 -1.06143,6.76966 -1.96044,12.75467 -1.99786,13.30004 -0.0433,0.62989 2.85192,6.62498 7.93743,16.43652 4.40298,8.49475 8.03865,15.589 8.07932,15.76496 0.0407,0.17599 -7.47562,4.60677 -16.70276,9.84618 l -16.77672,9.52624 -5.03935,11.0954 c -2.77168,6.10246 -5.17677,11.09795 -5.34471,11.10109 -0.16793,0.003 -6.04332,-3.13971 -13.05647,-6.98417 -7.01314,-3.84442 -12.80923,-6.92859 -12.8802,-6.85371 -0.0709,0.075 -3.82808,6.73889 -8.34918,14.8089 l -8.22014,14.67275 -10.23992,10.61844 c -5.63195,5.84014 -10.42688,10.61844 -10.65539,10.61844 -0.22854,0 -3.53657,-3.34481 -7.35119,-7.43291 -6.79844,-7.28584 -6.96628,-7.43263 -8.48206,-7.41889 -1.54458,0.0145 -1.55126,0.0209 -5.65099,5.69962 -4.09582,5.67346 -4.12149,5.72311 -12.02415,23.25003 -7.81582,17.33434 -7.98035,17.75406 -12.56126,32.0441 l -4.64171,14.47968 -3.15213,32.24144 c -2.65687,27.17593 -3.2532,32.31951 -3.79544,32.73827 -0.35381,0.27325 -5.94437,3.458 -12.42345,7.07723 l -11.78014,6.58035 -5.50397,9.20855 -5.50399,9.2085 -5.37621,15.95573 c -4.81005,14.2755 -5.46128,16.52494 -6.18446,21.36143 -0.66668,4.45863 -1.93282,20.21797 -1.94665,24.22934 -0.003,0.61515 -0.20673,1.04231 -0.48633,1.01543 -0.26546,-0.0254 -4.47905,-0.70884 -9.36353,-1.5185 z M 81.895911,181.45243 c 4.907617,-3.30724 2.794628,-11.09979 -3.009779,-11.09979 -3.575793,0 -5.924446,2.11822 -6.168719,5.56345 -0.260216,3.67009 2.347093,6.40643 6.104348,6.40643 1.210454,0 2.197615,-0.27939 3.07415,-0.87009 z"
       id="path1113" /><text
       xml:space="preserve"
       style="font-style:normal;font-weight:normal;font-size:30px;line-height:1.25;font-family:sans-serif;fill:#000000;fill-opacity:1;stroke:none;stroke-width:0.75"
       x="262.01218"
       y="525.08185"
       id="text1079"><tspan
         sodipodi:role="line"
         id="tspan1077"
         x="262.01218"
         y="525.08185"
         style="stroke-width:0.75" /></text></g><g
     inkscape:groupmode="layer"
     id="layer8"
     inkscape:label="cut"
     style="display:inline"><path
       style="display:inline;fill:none;stroke:#000000;stroke-width:0.797566px;stroke-linecap:butt;stroke-linejoin:miter;stroke-opacity:1"
       d="M 11.33858,19.29642 H 0"
       id="path3255-7-56" /><path
       style="display:inline;fill:none;stroke:#000000;stroke-width:0.797566px;stroke-linecap:butt;stroke-linejoin:miter;stroke-opacity:1"
       d="M 11.3386,797.8791 H 0"
       id="path3255-7-56-2" /><path
       style="display:inline;fill:none;stroke:#000000;stroke-width:0.797566px;stroke-linecap:butt;stroke-linejoin:miter;stroke-opacity:1"
       d="m 816.37801,19.29642 h -11.3386"
       id="path3255-7-56-7" /><path
       style="display:inline;fill:none;stroke:#000000;stroke-width:0.797566px;stroke-linecap:butt;stroke-linejoin:miter;stroke-opacity:1"
       d="M 816.37799,797.8791 H 805.03941"
       id="path3255-7-56-0" /><path
       style="display:inline;fill:none;stroke:#000000;stroke-width:0.797566px;stroke-linecap:butt;stroke-linejoin:miter;stroke-opacity:1"
       d="M 19.29642,11.33858 V 0"
       id="path3255-7-56-9" /><path
       style="display:inline;fill:none;stroke:#000000;stroke-width:0.797566px;stroke-linecap:butt;stroke-linejoin:miter;stroke-opacity:1"
       d="M 797.87914,11.33858 V 0"
       id="path3255-7-56-9-6" /><path
       style="display:inline;fill:none;stroke:#000000;stroke-width:0.797566px;stroke-linecap:butt;stroke-linejoin:miter;stroke-opacity:1"
       d="M 19.29642,816.378 V 805.0394"
       id="path3255-7-56-9-0" /><path
       style="display:inline;fill:none;stroke:#000000;stroke-width:0.797566px;stroke-linecap:butt;stroke-linejoin:miter;stroke-opacity:1"
       d="M 797.87914,816.378 V 805.0394"
       id="path3255-7-56-9-62" /></g></svg>
